<?xml version="1.0" standalone="no"?>
<!DOCTYPE svg PUBLIC "-//W3C//DTD SVG 20010904//EN"
 "http://www.w3.org/TR/2001/REC-SVG-20010904/DTD/svg10.dtd">
<svg version="1.0" xmlns="http://www.w3.org/2000/svg"
 width="1280.000000pt" height="1280.000000pt" viewBox="0 0 1280.000000 1280.000000"
 preserveAspectRatio="xMidYMid meet">

<g transform="translate(0.000000,1280.000000) scale(0.100000,-0.100000)"
fill="#4f8ff7" stroke="none">
<path d="M6440 11611 c0 -7 7 -14 15 -17 8 -4 15 -12 15 -19 0 -38 -163 -14
-192 29 -14 19 -27 -15 -17 -41 14 -37 13 -39 -48 -66 -32 -14 -82 -46 -110
-71 -102 -87 -237 -157 -345 -181 -35 -7 -36 -34 -3 -65 l24 -23 -22 -26 c-20
-24 -46 -78 -61 -123 -5 -18 -78 -34 -121 -26 -25 5 -36 -14 -15 -27 23 -14 6
-34 -47 -55 -32 -13 -62 -26 -66 -30 -12 -11 13 -47 40 -59 13 -6 23 -15 23
-20 0 -5 -20 -31 -44 -58 -48 -53 -138 -107 -199 -118 -20 -4 -40 -12 -43 -17
-10 -15 36 -56 83 -74 24 -9 42 -22 40 -28 -10 -31 -214 -166 -249 -166 -8 0
-24 -7 -36 -16 -18 -12 -20 -19 -11 -35 5 -11 21 -24 35 -29 35 -14 30 -30
-23 -81 -78 -74 -129 -109 -183 -125 -28 -8 -54 -22 -57 -31 -6 -16 18 -42 63
-70 19 -11 19 -12 -1 -28 -11 -9 -58 -35 -105 -57 -103 -50 -115 -62 -85 -92
8 -8 15 -21 15 -28 0 -26 -71 -148 -93 -160 -12 -7 -60 -12 -107 -13 -183 0
-318 72 -637 340 -69 58 -194 140 -264 174 -158 74 -378 80 -524 14 -45 -20
-136 -84 -175 -123 -54 -56 -137 -147 -170 -189 -19 -24 -46 -58 -60 -75 -92
-111 -244 -373 -304 -521 -15 -38 -32 -79 -37 -90 -5 -11 -26 -74 -48 -140
-61 -187 -276 -717 -352 -867 -21 -42 -16 -45 38 -23 19 8 37 15 39 15 2 0 0
-170 -3 -377 -9 -571 18 -972 89 -1318 11 -55 24 -118 29 -140 26 -128 161
-465 198 -495 3 -3 21 -25 40 -50 57 -76 85 -93 160 -99 l66 -6 11 -55 c22
-111 81 -221 158 -293 72 -68 109 -87 171 -87 69 0 93 12 111 55 21 52 17 124
-12 201 -64 169 -144 453 -218 774 -15 63 -33 142 -41 174 -16 65 -13 81 14
66 71 -38 170 -31 216 16 34 34 48 70 74 199 13 61 28 127 34 148 l10 38 29
-35 c32 -39 92 -61 138 -51 35 8 103 73 148 144 39 61 82 175 103 269 7 34 16
62 20 62 5 0 16 -13 25 -29 36 -62 140 -94 232 -71 66 15 121 64 158 137 16
32 30 59 31 61 1 2 19 -14 42 -37 57 -57 124 -65 205 -24 32 16 117 99 156
151 l25 33 57 -21 c67 -23 70 -24 138 -9 100 21 134 76 144 229 3 45 8 65 18
65 9 0 15 -23 19 -80 4 -44 10 -96 14 -116 7 -35 6 -37 -28 -43 -25 -5 -54
-26 -105 -76 -75 -74 -117 -98 -235 -130 -82 -23 -118 -44 -152 -90 -21 -29
-25 -45 -25 -109 0 -47 -8 -100 -20 -138 -17 -55 -18 -66 -5 -95 16 -39 54
-63 113 -72 24 -3 63 -21 90 -40 91 -65 191 -81 303 -50 58 16 96 44 85 63 -4
6 -18 6 -35 1 -15 -4 -40 -5 -55 -3 -29 6 -28 4 -10 69 4 16 -4 31 -30 57 -21
22 -36 46 -36 60 0 24 34 77 49 77 11 0 151 -138 151 -148 0 -15 88 -62 116
-62 16 0 48 -7 72 -15 35 -12 52 -13 85 -4 23 6 48 16 55 21 9 8 18 3 33 -16
12 -15 30 -26 44 -26 18 0 29 -10 41 -36 21 -44 55 -67 97 -66 19 0 40 -7 53
-19 45 -43 123 -49 216 -18 59 19 158 80 158 97 0 4 -44 7 -98 7 -91 0 -103 2
-160 31 l-60 32 -56 -26 c-31 -14 -59 -22 -63 -19 -3 4 -1 24 6 45 11 33 10
47 -8 106 -23 76 -28 169 -8 186 6 6 32 21 57 33 55 27 60 52 10 52 -42 0 -51
10 -39 43 5 13 7 27 4 32 -10 15 15 22 94 25 52 1 92 9 125 24 57 25 84 26
111 5 57 -43 235 -69 302 -43 26 10 30 7 87 -56 33 -37 84 -85 114 -107 111
-82 310 -157 425 -159 l57 -2 24 -52 c27 -59 72 -115 93 -115 7 0 13 -4 13
-10 0 -13 46 -13 71 0 29 16 23 41 -22 101 -48 64 -74 112 -83 156 l-7 31
-100 -5 c-107 -6 -113 -3 -83 43 9 13 20 39 23 57 6 28 11 32 44 35 20 2 37
-1 37 -6 0 -14 60 -76 94 -98 47 -30 157 -25 225 9 87 44 94 3 11 -63 -46 -36
-50 -56 -15 -72 21 -9 29 -7 59 15 58 45 51 -17 -8 -72 -50 -47 -24 -93 39
-67 31 13 37 14 42 1 14 -37 -25 -115 -58 -115 -11 0 -37 -9 -57 -19 -91 -46
-181 -45 -289 4 -79 37 -170 75 -243 102 -272 102 -336 119 -485 132 -76 6
-117 15 -170 38 -38 17 -78 33 -87 36 -10 4 -18 13 -18 21 0 8 -20 36 -44 62
l-44 47 -4 -29 -3 -29 -80 -3 c-88 -3 -107 -12 -83 -39 26 -30 31 -60 11 -72
-17 -10 -16 -13 9 -35 14 -13 36 -42 47 -64 16 -32 29 -43 58 -51 56 -16 207
-13 268 4 81 24 272 24 287 1 4 -6 5 -29 3 -51 -39 -359 -93 -541 -228 -779
-35 -61 -150 -179 -220 -225 -92 -59 -173 -89 -281 -102 -116 -15 -257 -1
-373 36 -91 29 -85 33 -140 -82 -29 -59 -35 -84 -36 -141 -1 -101 39 -161 138
-207 89 -40 157 -50 365 -49 193 0 195 0 252 28 32 15 79 43 105 62 105 75 31
-18 -93 -117 -62 -49 -207 -136 -275 -165 -55 -23 -195 -96 -239 -125 -16 -10
-272 -135 -330 -161 -300 -134 -610 -198 -762 -158 -91 24 -173 92 -199 164
-7 20 -18 36 -24 36 -13 0 -85 -59 -128 -104 -16 -17 -40 -53 -55 -80 -60
-116 -22 -240 112 -363 80 -73 85 -75 216 -109 66 -17 137 -26 230 -30 400
-19 888 112 1410 376 118 60 399 223 470 273 38 26 47 21 54 -31 3 -26 8 -58
11 -72 5 -21 -6 -37 -63 -95 -63 -65 -159 -141 -242 -192 -39 -24 -187 -90
-235 -104 -155 -48 -413 -80 -635 -79 -17 0 -61 -79 -80 -144 -17 -54 -8 -150
17 -184 55 -75 125 -97 308 -97 155 1 287 21 530 81 167 42 223 73 379 214 47
42 94 92 124 129 66 83 130 181 118 181 -2 0 -22 -24 -44 -52 -129 -171 -337
-323 -547 -401 -182 -68 -336 -91 -572 -86 -157 4 -158 4 -200 34 -23 17 -48
42 -54 58 -18 42 -6 109 29 159 l31 45 213 5 c162 4 219 2 239 -8 48 -24 121
-27 187 -9 61 17 75 28 50 38 -19 8 11 27 41 27 61 0 234 62 273 97 28 25 23
46 -9 40 -127 -26 -143 -28 -159 -19 -19 10 -26 4 133 114 37 26 95 72 128
103 33 30 65 55 71 55 6 0 25 -18 43 -40 41 -52 124 -91 205 -97 80 -7 185 22
279 77 98 57 100 56 66 -36 -43 -115 -155 -290 -244 -380 -53 -54 -205 -172
-336 -261 -76 -52 -267 -144 -325 -156 -68 -14 -184 8 -279 53 -34 16 -79 30
-99 30 -88 0 -179 -88 -191 -185 -10 -76 2 -147 42 -240 35 -85 68 -119 148
-154 102 -45 308 -63 423 -37 159 36 343 126 509 250 116 87 285 257 383 386
19 25 37 47 40 50 46 44 374 543 473 720 10 19 25 42 33 51 8 8 14 20 14 26 0
19 36 41 80 48 67 11 206 79 218 108 5 10 30 9 36 -1 10 -17 -45 -353 -73
-444 -61 -196 -101 -272 -180 -345 -67 -63 -122 -86 -203 -87 -38 0 -68 -4
-68 -8 0 -19 89 -155 130 -197 87 -89 144 -116 245 -115 106 1 173 35 289 147
40 39 65 55 76 51 89 -37 129 -46 190 -42 83 6 140 35 205 102 44 46 95 131
124 208 8 22 18 26 84 35 89 13 168 47 219 94 46 43 103 128 119 176 6 21 15
43 20 48 8 10 34 152 44 235 5 45 6 46 65 68 134 52 224 165 288 362 70 213
68 415 -7 640 -32 94 -72 174 -245 495 -34 62 -194 325 -216 355 -14 19 -47
62 -72 95 -25 33 -49 71 -53 85 -15 51 -91 187 -144 259 -151 205 -482 493
-794 688 -29 18 -53 37 -55 41 -1 5 12 24 30 44 18 19 44 63 57 96 26 67 37
75 50 40 29 -76 191 -315 275 -405 169 -182 332 -256 481 -219 35 9 67 16 69
16 3 0 29 -46 57 -102 131 -263 212 -348 333 -348 84 0 147 46 182 132 17 43
44 65 44 37 0 -6 7 -25 15 -42 8 -18 34 -79 58 -137 89 -213 146 -270 264
-262 30 3 110 84 129 132 18 44 34 48 45 9 4 -13 16 -58 28 -99 40 -139 102
-421 121 -548 17 -117 40 -350 40 -407 0 -95 24 -130 103 -149 104 -25 207
246 207 545 0 63 6 92 31 154 42 106 57 185 69 360 17 257 -11 591 -74 885
-129 598 -413 1160 -845 1675 -122 144 -131 154 -246 270 -352 353 -568 502
-877 606 -153 51 -319 79 -483 81 -117 1 -136 -1 -187 -23 -107 -45 -172 -103
-284 -254 -116 -155 -238 -280 -379 -386 -177 -132 -327 -193 -430 -173 -43 8
-45 28 -5 49 36 18 38 31 8 40 -41 12 -99 58 -149 118 -42 50 -47 61 -38 79
10 18 4 28 -45 77 -59 60 -66 75 -40 85 15 6 15 9 -3 29 -45 48 -48 76 -10 90
25 9 21 42 -8 65 -34 27 -36 93 -3 114 22 15 22 16 5 42 -10 15 -16 30 -13 35
3 4 6 45 7 91 1 81 2 82 25 77 22 -4 29 4 60 66 45 91 66 120 128 185 57 60
93 81 210 123 107 38 219 57 398 68 167 9 224 29 266 91 23 34 30 104 12 115
-6 4 -8 10 -5 15 9 15 -11 20 -46 10 -73 -22 -199 -6 -199 23 0 11 38 39 120
90 14 9 52 23 84 31 57 15 62 15 103 -5 24 -11 43 -27 43 -34 0 -7 6 -18 14
-25 12 -9 19 -3 37 37 32 69 31 135 -6 207 -61 120 -139 161 -305 161 -52 0
-121 -4 -152 -9 -49 -7 -58 -6 -58 7 0 8 -18 38 -40 66 -63 79 -215 140 -351
141 -39 0 -134 25 -211 55 -11 4 -18 3 -18 -4z m390 -151 c118 -40 180 -101
180 -176 0 -37 -27 -70 -69 -88 -27 -10 -41 -23 -45 -41 -6 -25 7 -55 23 -55
14 0 118 107 129 132 13 30 48 43 159 57 169 21 283 -32 333 -155 27 -67 19
-81 -33 -59 -51 21 -136 19 -199 -6 -29 -11 -84 -46 -123 -78 -87 -70 -134
-100 -188 -116 l-42 -13 30 -12 c66 -27 146 -41 268 -47 70 -3 127 -10 127
-15 0 -54 -77 -86 -205 -87 -132 -1 -345 -19 -430 -36 -124 -26 -187 -17 -199
29 -4 15 -2 35 3 45 9 15 5 20 -27 29 -95 29 -152 36 -152 19 0 -22 35 -80 57
-94 18 -12 23 -22 19 -39 -5 -19 3 -27 50 -54 l56 -31 -36 -35 c-53 -51 -112
-133 -136 -187 -12 -26 -23 -47 -25 -47 -12 0 -94 40 -99 49 -4 6 -19 -3 -36
-21 -24 -24 -41 -32 -79 -36 -59 -5 -101 16 -156 81 -30 35 -35 38 -35 18 0
-56 49 -130 100 -151 23 -10 31 -22 41 -63 7 -29 19 -67 26 -86 18 -43 5 -71
-43 -95 -77 -36 -211 1 -233 66 -16 45 -15 47 29 54 44 7 65 26 56 50 -5 13
-17 15 -68 9 -113 -11 -168 43 -192 188 -10 56 -14 66 -19 46 -4 -14 -18 -31
-31 -39 -22 -11 -32 -10 -71 4 -59 23 -79 53 -73 110 5 44 5 44 -31 50 -37 6
-81 31 -81 46 0 4 24 21 53 38 63 36 119 87 141 130 29 56 54 40 75 -48 12
-47 45 -124 61 -140 3 -3 25 -31 49 -62 24 -32 45 -58 46 -58 2 0 10 -3 18 -6
8 -3 17 2 20 11 5 10 -15 39 -58 85 -70 77 -107 155 -108 227 0 38 -3 42 -31
47 -17 3 -44 17 -61 30 l-30 24 40 7 c74 12 110 29 110 52 1 31 11 38 50 34
55 -4 75 6 75 39 0 25 -3 29 -27 27 -36 -3 -33 21 11 83 31 44 148 150 165
150 4 0 11 -25 14 -56 7 -67 29 -104 62 -104 45 0 45 77 0 145 -14 20 -23 40
-21 44 3 4 26 18 52 31 45 24 47 24 58 6 6 -10 19 -28 29 -40 18 -20 18 -20
12 -1 -14 40 -17 93 -7 112 8 13 43 30 109 51 144 46 182 51 348 48 123 -3
162 -7 215 -26z m-1415 -1053 c7 -20 18 -43 24 -51 22 -26 79 -46 134 -46 l55
0 7 -47 c4 -27 14 -60 23 -75 9 -15 13 -30 10 -33 -3 -3 -28 -8 -56 -12 -83
-9 -172 47 -172 110 0 10 -8 13 -25 9 -41 -7 -91 7 -119 35 -15 14 -25 30 -24
34 9 22 105 119 116 117 8 -2 20 -20 27 -41z m860 -164 c-3 -15 -11 -52 -16
-83 -20 -115 -16 -111 -59 -62 -61 68 -77 142 -31 142 10 0 34 7 52 15 52 22
62 20 54 -12z m-884 -53 c12 -28 36 -62 52 -76 30 -25 30 -27 13 -40 -44 -32
-181 -31 -218 2 -26 24 -48 75 -48 114 0 31 2 33 60 31 19 0 51 3 70 8 19 5
38 9 42 10 4 1 17 -22 29 -49z m373 -133 c14 -29 38 -62 53 -73 61 -45 167
-61 270 -41 40 8 75 11 78 8 3 -3 14 -24 24 -46 10 -23 32 -57 48 -76 23 -26
30 -42 28 -70 -1 -20 -5 -40 -8 -46 -3 -5 -40 -6 -87 -2 -122 11 -191 50 -261
150 l-15 22 -64 -21 c-109 -37 -216 -27 -273 27 -31 28 -72 108 -82 158 l-7
33 74 -5 c57 -4 84 -1 123 13 28 11 55 20 61 21 7 0 23 -23 38 -52z m-611 8
c10 -21 32 -43 59 -57 37 -20 56 -23 135 -21 l91 2 13 -51 c21 -88 56 -140
113 -168 59 -28 151 -27 238 4 l67 24 28 -31 c85 -90 238 -155 340 -143 50 6
53 5 67 -22 8 -16 31 -43 50 -60 l36 -31 -22 -20 c-27 -26 -93 -36 -146 -22
-35 10 -94 52 -149 107 -13 12 -20 10 -55 -20 -59 -51 -105 -70 -168 -70 -79
0 -139 33 -237 131 l-81 83 -57 -11 c-170 -31 -287 58 -314 238 -7 47 -8 48
-39 45 -18 -1 -49 6 -69 16 -33 17 -34 20 -18 33 10 8 32 28 49 46 17 18 36
32 42 32 6 1 18 -15 27 -34z m-1659 -21 c70 -18 190 -80 256 -132 25 -20 83
-74 130 -119 46 -46 87 -83 91 -83 4 0 14 -6 21 -13 120 -115 351 -206 526
-207 48 0 82 -4 82 -10 0 -6 -8 -38 -17 -71 -20 -72 -36 -85 -122 -100 -52
-10 -69 -9 -105 5 -46 18 -84 52 -113 104 l-18 33 -86 2 c-73 2 -91 6 -122 27
-39 26 -87 107 -87 145 0 18 -9 24 -57 35 -68 14 -119 39 -185 87 -53 39 -164
73 -235 73 -54 0 -170 -21 -223 -41 -39 -14 -162 -78 -170 -88 -3 -3 -32 -26
-64 -51 -116 -88 -171 -151 -300 -345 -80 -121 -153 -250 -223 -395 -44 -90
-113 -257 -113 -272 0 -11 -67 -157 -111 -243 -63 -120 -131 -204 -197 -242
-48 -28 -54 -12 -16 44 28 42 135 259 166 338 10 28 25 64 33 80 18 41 135
373 135 385 0 6 20 56 44 113 121 284 290 551 447 705 115 115 129 127 174
152 19 11 52 30 73 42 99 57 259 75 386 42z m4559 -55 c307 -38 612 -186 956
-466 431 -351 875 -951 1065 -1438 71 -181 173 -503 215 -680 7 -27 16 -66 21
-85 88 -345 112 -795 54 -1018 -32 -123 -94 -222 -139 -222 -39 0 -57 33 -66
122 -44 440 -85 679 -174 1013 -35 133 -134 442 -159 498 -8 18 -21 52 -31 77
-40 106 -119 286 -191 430 -101 204 -161 309 -278 480 l-50 75 -2 90 c-2 79
-28 210 -49 245 -3 5 0 10 8 10 26 0 234 -216 337 -350 19 -25 40 -51 47 -58
15 -15 83 -130 83 -139 0 -15 33 -41 46 -36 24 9 16 41 -26 104 -22 33 -40 63
-40 65 0 18 -198 258 -287 349 -333 339 -709 569 -1220 746 -120 41 -153 49
-215 49 -78 0 -141 -15 -204 -49 -66 -35 -74 -45 -74 -90 0 -85 -88 -195 -173
-216 -15 -4 -27 -11 -27 -15 0 -5 -20 -29 -45 -54 -31 -32 -59 -50 -90 -58
-42 -11 -46 -15 -60 -63 -30 -104 -116 -166 -260 -186 -43 -6 -110 -8 -147 -4
l-68 7 -48 -43 c-57 -51 -110 -73 -156 -65 -35 7 -113 53 -120 72 -8 21 35 96
52 89 89 -34 230 -31 327 8 53 21 192 100 205 116 3 3 23 19 45 35 79 57 282
274 383 409 105 139 135 169 207 205 35 17 63 25 170 46 38 7 90 6 178 -5z
m-1823 -55 c0 -17 -22 -14 -28 4 -2 7 3 12 12 12 9 0 16 -7 16 -16z m-1106
-16 c3 -13 7 -38 10 -57 13 -75 50 -154 93 -197 24 -24 43 -48 43 -53 0 -16
-101 -102 -143 -121 -90 -41 -152 -14 -204 89 -45 87 -44 107 6 115 21 3 48
14 60 23 22 18 22 18 -21 18 -45 0 -119 31 -126 52 -2 7 7 17 20 22 14 5 46
33 72 63 50 55 51 55 168 66 11 1 19 -7 22 -20z m3011 -167 c39 -12 84 -27
102 -32 31 -10 32 -11 27 -57 -5 -40 -2 -52 20 -82 14 -19 33 -51 43 -70 21
-44 29 -150 13 -179 -19 -37 -70 -61 -128 -61 -49 0 -52 1 -48 23 16 78 15 77
46 77 37 0 84 39 75 62 -9 23 -33 30 -57 17 -35 -19 -63 -3 -87 50 -42 94
-158 171 -256 171 l-40 0 -24 -80 c-47 -158 -146 -268 -259 -290 -44 -8 -115
0 -129 14 -10 10 105 115 134 122 67 16 143 91 173 170 11 30 20 63 20 74 0
31 42 70 95 88 64 22 181 15 280 -17z m-4564 -13 c43 -12 46 -21 23 -67 -9
-18 -17 -51 -19 -74 -2 -23 -4 -48 -4 -54 -1 -7 -12 -19 -24 -28 -22 -14 -29
-13 -85 4 -113 36 -187 85 -209 140 -19 45 -8 55 87 81 79 21 157 21 231 -2z
m1285 -53 c6 -2 13 -39 16 -87 5 -78 30 -158 50 -158 4 0 8 -46 8 -102 1 -76
6 -118 20 -158 11 -30 19 -59 20 -63 0 -15 -105 -57 -143 -57 -60 0 -112 33
-147 93 -42 72 -40 93 8 101 79 12 181 83 194 133 14 52 -62 54 -100 4 -22
-30 -113 -81 -144 -81 -11 0 -18 7 -18 20 0 29 65 201 111 292 l39 77 37 -5
c21 -3 43 -7 49 -9z m-1110 -47 c27 -11 71 -26 98 -32 l48 -11 2 -45 c2 -59
32 -110 79 -135 42 -22 42 -30 4 -59 -34 -25 -100 -24 -185 3 -126 39 -173 95
-153 179 14 56 41 122 51 122 4 0 29 -10 56 -22z m4711 -18 c160 -61 384 -188
597 -340 57 -41 78 -79 127 -225 41 -124 46 -228 13 -272 -30 -41 -88 -43
-155 -6 -56 30 -68 43 -140 155 -92 143 -257 297 -409 383 l-55 31 -11 99 c-7
55 -19 119 -27 142 -21 60 -17 62 60 33z m-2889 -23 c19 -52 71 -125 102 -144
36 -21 30 -37 -26 -69 -114 -67 -271 -23 -326 91 -20 40 -20 46 -7 82 l15 38
79 7 c44 3 91 11 105 17 39 15 45 13 58 -22z m-2436 18 c3 -3 -10 -41 -28 -83
-19 -42 -34 -89 -34 -104 0 -24 22 -58 37 -58 17 0 43 36 43 60 0 35 23 112
42 139 15 20 16 20 67 -31 39 -39 51 -57 47 -72 -15 -62 -59 -172 -73 -188 -9
-10 -48 -34 -86 -53 -86 -43 -168 -49 -208 -14 -13 12 -33 29 -45 38 -11 9
-26 25 -32 36 -14 27 0 99 24 128 56 65 139 147 150 147 7 0 14 3 16 8 4 9 60
51 69 52 3 0 8 -2 11 -5z m4927 -122 c57 -69 63 -147 18 -228 -27 -49 -95 -87
-147 -83 -34 3 -35 5 -52 66 -9 35 -26 78 -36 96 l-20 34 34 67 c19 37 34 73
34 81 0 7 4 24 10 39 l10 25 59 -29 c32 -17 73 -47 90 -68z m-1956 2 c27 -42
73 -88 112 -111 46 -26 -33 -129 -122 -158 -58 -18 -112 -10 -175 27 -49 29
-138 119 -138 140 0 10 17 16 51 20 53 7 182 72 216 109 9 10 19 18 22 18 3 0
19 -20 34 -45z m-825 -43 c2 -12 8 -22 13 -22 5 0 9 -5 9 -11 0 -21 54 -81 95
-104 82 -48 167 -43 294 17 l65 31 23 -29 c12 -16 23 -33 23 -37 0 -16 86
-100 119 -116 19 -9 36 -21 38 -26 5 -15 -94 -72 -150 -86 -62 -15 -143 -6
-198 21 -24 13 -73 53 -109 90 l-65 66 -40 -29 c-61 -45 -170 -94 -225 -102
-128 -18 -188 64 -195 265 0 11 16 17 65 22 66 6 131 27 185 60 36 21 49 19
53 -10z m-1814 -25 c16 -12 16 -15 -3 -57 -24 -53 -27 -103 -7 -119 21 -18 42
19 57 102 16 86 33 88 107 13 l53 -54 -16 -78 c-9 -43 -20 -84 -26 -90 -5 -6
-33 -22 -61 -34 -72 -31 -172 -25 -222 14 -58 44 -58 95 2 249 26 65 27 67 62
67 20 0 44 -6 54 -13z m2990 -48 c57 -73 52 -84 -33 -84 -47 0 -67 6 -106 30
-26 17 -49 34 -49 40 -1 5 18 17 42 25 23 9 50 24 59 33 10 9 22 17 29 17 6 0
32 -28 58 -61z m-2218 -50 c23 -20 56 -45 73 -53 17 -9 31 -20 31 -25 0 -8
-56 -34 -97 -46 -34 -9 -96 12 -125 42 -26 28 -60 111 -51 126 2 4 32 5 66 1
53 -6 68 -12 103 -45z m3543 -46 c27 -109 23 -147 -21 -199 -32 -37 -94 -61
-193 -75 -65 -9 -89 -9 -98 0 -8 8 -6 15 11 27 41 28 68 64 101 133 27 54 40
70 70 83 20 9 52 28 71 42 19 14 38 25 42 26 4 0 12 -17 17 -37z m-3769 -5
c52 -64 78 -100 95 -132 17 -32 24 -36 45 -32 14 4 61 9 104 13 75 6 79 5 74
-13 -43 -146 -46 -173 -14 -161 9 4 16 28 21 74 9 96 11 101 35 75 41 -44 70
-96 70 -126 0 -85 -49 -156 -114 -167 -45 -7 -109 18 -153 62 -45 43 -63 79
-66 129 -2 44 -15 51 -35 19 -36 -58 -199 -81 -280 -40 -57 29 -75 63 -80 153
-2 42 -1 93 2 112 l7 36 82 -6 c45 -4 85 -10 90 -13 8 -8 -10 -59 -40 -118
-14 -26 -15 -34 -4 -47 34 -41 65 -4 82 98 11 62 17 80 34 86 28 12 33 12 45
-2z m-1207 -38 c10 -22 39 -60 64 -84 31 -31 44 -51 40 -63 -3 -10 -24 -65
-47 -123 -62 -161 -103 -327 -115 -465 -6 -82 -63 -194 -116 -231 -47 -32
-117 -41 -173 -22 -116 39 -108 216 24 507 103 227 269 521 294 521 6 0 19
-18 29 -40z m3483 19 c27 -30 88 -59 124 -59 38 0 46 -19 25 -60 -47 -91 -136
-129 -234 -99 -42 13 -146 89 -146 108 0 7 17 19 38 26 42 14 105 55 133 86
22 24 36 24 60 -2z m-1765 -9 c14 0 11 -18 -13 -71 -13 -27 -28 -49 -34 -49
-14 0 -48 86 -41 105 6 14 42 25 65 19 8 -2 18 -4 23 -4z m3954 -30 c120 -64
203 -132 309 -251 35 -39 39 -49 38 -93 -2 -81 -45 -161 -102 -191 -92 -48
-283 18 -330 114 -31 64 -107 160 -214 268 l-90 93 29 30 c52 54 85 39 213
-95 51 -53 98 -104 104 -114 62 -87 126 -151 152 -151 25 0 56 28 56 50 0 15
-114 127 -254 251 -78 68 -91 82 -81 86 6 2 26 12 45 23 19 10 38 19 42 19 5
1 42 -17 83 -39z m-1072 3 c31 -15 57 -32 57 -38 0 -19 -82 -95 -104 -96 -38
-2 -70 3 -100 15 l-29 12 35 36 c20 20 44 50 54 67 10 17 21 31 24 31 3 0 31
-12 63 -27z m-4153 -103 c6 -21 20 -46 32 -54 l21 -15 -28 -68 c-65 -164 -106
-301 -120 -408 -13 -96 -62 -199 -110 -231 -60 -39 -176 -25 -220 28 -23 27
-25 38 -25 121 0 51 7 124 15 162 19 89 78 279 117 373 l30 72 62 0 c35 0 65
-3 68 -6 4 -3 -7 -37 -23 -76 -28 -68 -87 -289 -90 -338 -3 -50 1 -70 14 -70
30 0 45 38 61 155 33 232 69 340 124 371 52 31 60 29 72 -16z m2328 -79 c28
-19 52 -41 52 -48 0 -18 -57 -101 -85 -126 -40 -35 -99 -59 -144 -60 -59 0
-138 39 -180 90 -34 42 -66 115 -58 135 2 7 35 21 73 31 38 10 100 33 139 51
l70 34 40 -37 c22 -20 64 -52 93 -70z m2455 66 c59 -49 131 -120 213 -212 105
-119 107 -123 95 -191 -12 -63 -46 -115 -95 -145 -24 -15 -50 -19 -118 -19
-104 0 -86 -12 -315 214 -145 143 -171 176 -139 176 7 0 45 16 85 36 41 20 76
32 83 28 71 -42 184 -149 209 -196 22 -44 33 -51 59 -43 26 8 25 25 -6 87 -35
68 -107 136 -182 172 -63 30 -69 38 -53 78 5 13 12 31 15 41 5 15 14 17 56 13
39 -3 61 -13 93 -39z m-3435 -22 c10 -21 66 -69 112 -95 41 -24 -113 -220
-174 -220 -35 0 -32 150 6 273 22 71 38 83 56 42z m1455 -17 c30 -24 67 -53
83 -64 23 -18 27 -24 17 -35 -7 -7 -13 -20 -13 -28 0 -25 -50 -81 -93 -102
-77 -40 -155 -19 -212 55 -39 51 -37 76 6 91 53 19 103 55 129 92 12 18 24 33
26 33 3 0 28 -19 57 -42z m-994 -10 c20 -7 38 -13 40 -15 1 -1 5 -25 8 -54 5
-66 22 -106 62 -151 17 -20 31 -42 31 -50 0 -38 -104 -98 -172 -98 -61 0 -85
10 -134 56 -55 52 -86 114 -82 166 3 40 4 41 63 59 43 13 72 30 100 59 45 46
38 44 84 28z m2165 -34 c46 -21 68 -25 128 -23 51 2 73 -1 76 -10 9 -26 -41
-109 -82 -139 -50 -36 -72 -43 -133 -43 -51 0 -178 35 -189 52 -3 5 16 33 43
62 26 29 57 69 68 90 11 20 22 37 26 37 4 0 32 -12 63 -26z m-697 -30 c31 -19
66 -34 78 -34 32 0 46 -19 33 -44 -42 -79 -141 -105 -230 -60 -28 15 -78 79
-78 101 0 7 17 21 38 32 21 11 44 27 52 35 16 20 32 15 107 -30z m-2862 -11
c16 -29 24 -55 20 -68 -44 -149 -85 -347 -85 -410 0 -31 -9 -52 -38 -90 -46
-61 -104 -95 -174 -102 -44 -4 -59 -1 -87 19 -66 45 -73 107 -36 321 25 149
63 282 96 336 19 31 20 31 102 31 46 0 86 -3 90 -6 3 -4 -9 -36 -27 -73 -18
-36 -41 -88 -51 -116 -10 -27 -22 -54 -26 -60 -14 -19 -50 -135 -51 -163 -1
-39 8 -52 37 -52 31 0 32 3 61 118 34 133 80 268 110 320 14 23 27 42 29 42 2
0 15 -21 30 -47z m3385 36 c0 -19 -35 -71 -60 -89 -49 -35 -108 -26 -173 26
-31 25 -32 31 -13 53 12 13 38 16 130 16 64 0 116 -2 116 -6z m-1300 -46 c2
-2 10 -31 17 -64 8 -39 23 -74 44 -100 l32 -40 -18 -33 c-20 -36 -67 -72 -113
-85 -52 -15 -153 16 -195 61 -20 20 -16 48 6 48 37 0 117 112 150 212 5 14 13
16 39 11 18 -3 35 -8 38 -10z m531 -12 c3 -3 11 -33 18 -66 13 -70 51 -132 86
-141 41 -10 30 -40 -31 -88 -71 -56 -127 -73 -181 -56 -42 14 -107 70 -129
112 -17 33 -17 38 -1 38 32 0 119 128 131 192 3 13 5 24 5 26 2 5 96 -10 102
-17z m494 -56 c37 -34 47 -47 37 -54 -8 -4 -16 -26 -19 -49 -4 -32 1 -55 26
-108 17 -36 31 -68 31 -70 0 -2 -18 -4 -41 -4 -26 0 -52 8 -71 22 l-31 21 -26
-30 c-40 -46 -98 -73 -156 -73 -52 0 -125 16 -125 27 0 4 12 19 26 34 15 16
34 51 44 79 16 47 22 53 76 79 66 31 116 78 145 134 11 20 23 37 27 37 4 -1
30 -21 57 -45z m782 15 c70 -42 225 -215 267 -297 20 -40 20 -66 1 -103 -48
-93 -188 -116 -292 -47 -92 61 -213 202 -213 247 0 10 16 24 38 33 20 9 50 24
65 34 l29 18 41 -46 c23 -25 55 -70 71 -100 16 -30 33 -57 38 -60 14 -9 59 2
65 17 12 33 -85 160 -160 209 -26 17 -28 22 -23 58 11 65 20 70 73 37z m-3452
-77 l26 -57 -23 -130 c-20 -121 -25 -135 -62 -186 -49 -67 -124 -143 -168
-170 -43 -26 -109 -27 -132 -1 -9 10 -26 42 -37 70 -50 132 5 542 69 516 9 -4
48 -9 86 -11 37 -1 70 -5 72 -7 3 -2 -9 -45 -26 -95 -16 -50 -33 -117 -36
-150 -6 -54 -5 -61 15 -71 27 -15 59 1 65 32 2 12 9 69 15 127 6 58 16 122 21
142 11 36 14 38 77 47 6 0 23 -25 38 -56z m2860 2 c11 -2 33 -23 48 -47 23
-34 27 -51 23 -82 -2 -21 -13 -48 -24 -59 -17 -17 -24 -18 -54 -8 -56 19 -108
91 -123 174 l-7 37 58 -5 c33 -4 68 -8 79 -10z m-2182 -68 c46 -89 137 -147
232 -147 l45 0 0 -37 c1 -107 105 -214 234 -241 22 -4 41 -13 44 -20 6 -19
-98 -117 -145 -138 -62 -27 -158 -24 -223 7 -56 26 -170 122 -170 143 0 6 20
22 44 34 62 34 98 73 99 114 2 31 0 33 -30 32 -20 -1 -48 -15 -75 -37 -54 -44
-86 -57 -144 -57 -96 0 -157 62 -173 178 l-8 57 -16 -37 c-20 -43 -22 -106 -6
-141 10 -21 5 -35 -31 -103 -77 -142 -114 -184 -160 -184 -65 0 -111 50 -124
136 -7 52 10 322 23 357 9 23 15 26 53 24 24 -1 55 1 71 6 26 7 27 7 27 -35
-1 -24 -8 -79 -16 -123 -19 -95 -20 -123 -4 -139 8 -8 15 -6 25 8 10 13 14 48
14 120 -2 188 -3 182 35 205 42 27 42 27 54 -9 17 -46 50 -48 135 -7 39 19 88
49 107 65 19 17 39 30 45 28 5 -1 22 -28 38 -59z m4152 -26 c54 -58 97 -81
163 -86 26 -2 50 -4 53 -4 9 -1 136 -261 204 -416 68 -157 153 -335 159 -335
45 0 47 52 5 151 -17 41 -35 88 -41 104 -12 32 -116 239 -145 290 -10 17 -44
74 -76 129 l-59 98 21 21 c25 26 45 17 70 -29 9 -16 26 -43 39 -61 12 -17 22
-34 22 -37 0 -3 14 -25 30 -48 17 -22 30 -45 30 -49 0 -4 14 -31 30 -59 116
-197 290 -591 381 -865 39 -116 42 -216 10 -290 -13 -27 -30 -58 -38 -67 -32
-35 -97 -17 -151 42 -32 36 -115 209 -150 315 -30 90 -41 120 -147 392 -109
281 -187 419 -402 711 -9 13 -25 33 -36 45 -35 40 -49 67 -43 82 9 24 23 18
71 -34z m-3540 -21 c34 0 45 -4 50 -19 3 -11 30 -45 60 -75 61 -62 62 -72 9
-136 -42 -49 -101 -72 -192 -72 -117 -1 -169 29 -211 122 -33 71 -29 83 32
104 28 11 81 34 117 52 36 19 71 32 78 29 8 -3 33 -5 57 -5z m589 -2 c25 -86
40 -111 87 -140 27 -16 49 -36 49 -44 0 -25 -59 -80 -98 -92 -102 -31 -208 -8
-272 60 -40 42 -39 65 6 84 20 8 63 43 97 78 49 50 69 63 95 64 19 1 34 -3 36
-10z m1224 -4 c15 -4 34 -27 53 -63 34 -66 85 -136 135 -189 34 -35 35 -39 30
-91 -8 -67 -34 -127 -72 -165 -26 -25 -34 -28 -79 -24 -37 3 -65 14 -101 38
-79 55 -143 120 -165 169 -11 24 -31 59 -44 77 -32 42 -32 49 8 65 17 7 47 25
65 41 18 15 39 28 47 28 21 0 81 -69 115 -132 32 -60 48 -69 70 -43 26 31 -50
145 -133 199 -32 22 -32 22 -7 64 20 32 35 37 78 26z m1667 -97 c108 -140 318
-520 368 -668 8 -24 28 -71 43 -104 26 -55 28 -70 28 -185 1 -139 -7 -164 -65
-199 -43 -26 -114 -34 -148 -17 -32 17 -89 82 -113 128 -19 39 -19 37 -152
353 -24 55 -48 109 -54 120 -6 11 -25 54 -42 95 -49 119 -82 191 -118 252 -33
58 -137 171 -186 203 -16 11 -26 26 -26 41 0 30 3 30 81 0 36 -13 86 -27 112
-31 47 -7 48 -9 111 -104 95 -144 155 -254 208 -376 54 -125 70 -148 101 -143
41 6 31 46 -52 210 -81 158 -215 388 -233 399 -6 4 -9 11 -7 17 6 15 71 60 89
61 8 0 33 -23 55 -52z m-3227 -63 c15 -4 29 -21 38 -44 27 -67 113 -128 206
-145 51 -10 59 -22 43 -69 -32 -91 -123 -140 -260 -139 -130 0 -216 40 -253
114 -25 50 -18 76 22 93 66 28 111 80 145 169 11 28 20 31 59 21z m1207 -41
c22 -6 40 -26 73 -78 23 -39 47 -88 53 -110 22 -82 -7 -188 -64 -229 -39 -29
-118 -26 -190 7 -70 32 -113 94 -158 228 -38 113 -34 133 24 147 23 6 67 24
96 40 50 27 57 28 95 16 23 -7 54 -16 71 -21z m-472 -11 c37 -14 67 -32 67
-39 0 -33 -38 -101 -73 -133 -77 -68 -162 -84 -252 -45 -38 16 -85 60 -85 79
0 8 15 19 33 25 37 13 97 70 120 117 15 30 18 31 69 27 29 -3 83 -17 121 -31z
m2033 25 c118 -68 257 -310 349 -607 16 -51 16 -55 0 -67 -25 -17 -97 -27
-160 -20 -119 12 -273 133 -383 302 -29 44 -56 85 -61 91 -18 22 -112 216
-108 221 3 2 49 6 102 8 l96 4 42 -46 c76 -82 157 -209 157 -244 0 -6 7 -26
16 -44 27 -57 94 -55 94 2 0 22 -53 110 -84 138 -6 6 -29 33 -51 60 -22 28
-62 74 -89 103 -27 29 -47 54 -45 57 18 18 77 53 89 54 8 0 24 -5 36 -12z
m-469 -74 c12 -31 117 -218 125 -221 5 -2 8 -8 8 -13 0 -11 75 -121 123 -181
22 -28 28 -43 23 -62 -10 -40 -64 -95 -106 -107 -41 -12 -145 -4 -155 12 -4 5
-16 9 -27 9 -13 0 -50 29 -97 78 -65 66 -87 99 -144 211 -37 73 -67 139 -67
147 0 9 11 14 29 14 16 0 48 7 71 15 24 8 50 13 59 10 22 -7 91 -72 128 -120
32 -42 73 -146 73 -187 0 -44 38 -68 65 -42 49 49 -43 206 -197 338 -39 34
-41 38 -24 48 10 5 32 23 50 39 36 33 54 36 63 12z m-3288 -107 c25 -7 63 -11
84 -8 47 5 48 -9 5 -90 -61 -114 -144 -178 -231 -178 l-46 0 6 -55 c11 -107
-33 -283 -75 -300 -97 -41 -169 -8 -192 88 -14 58 -25 293 -14 299 5 3 35 9
67 12 l57 7 0 -85 c0 -76 2 -86 22 -100 31 -22 45 -20 62 7 12 19 12 34 -3
120 -17 94 -17 98 1 114 23 21 38 8 54 -45 l11 -37 12 30 c8 19 11 52 7 91 -5
49 -2 74 15 120 12 33 23 65 25 72 2 8 17 3 45 -18 23 -17 63 -36 88 -44z
m2946 -84 c43 -95 120 -227 165 -284 36 -45 39 -93 10 -153 -25 -51 -71 -75
-144 -75 -43 0 -61 6 -92 29 -70 51 -169 170 -232 277 -32 54 -29 74 10 74 28
0 74 27 92 52 20 29 28 19 56 -67 47 -145 113 -265 146 -265 31 0 25 32 -20
105 -26 41 -65 114 -87 162 -36 77 -41 96 -41 160 0 39 5 81 11 92 l11 20 38
-21 c33 -17 45 -33 77 -106z m-3512 36 c3 -39 16 -82 34 -117 l29 -56 -18 -65
c-10 -36 -21 -109 -23 -164 -4 -83 -10 -107 -32 -148 -30 -55 -83 -112 -127
-135 -42 -22 -111 -20 -144 4 -95 70 -102 236 -23 531 11 37 15 42 42 42 16 0
46 7 66 15 43 18 58 9 44 -26 -29 -70 -41 -282 -17 -315 15 -19 15 -19 38 4
22 21 23 33 29 190 4 92 11 181 17 198 13 41 54 104 68 104 6 0 14 -26 17 -62z
m-923 9 c0 -17 67 -76 93 -82 31 -8 33 -19 12 -99 -24 -91 -43 -212 -50 -321
-8 -116 -33 -197 -111 -360 -39 -83 -64 -122 -99 -154 l-46 -42 -32 20 c-18
10 -45 41 -62 67 -27 43 -30 57 -35 157 -9 186 26 559 64 687 13 45 13 45 77
58 34 7 71 20 80 28 36 33 35 1 -3 -110 -46 -136 -78 -327 -58 -351 15 -18 54
-20 67 -2 6 6 13 66 17 132 8 149 33 356 47 393 10 26 11 26 25 8 8 -11 14
-24 14 -29z m3354 -15 c10 -31 40 -90 67 -131 27 -41 49 -84 49 -96 0 -45 -68
-95 -130 -95 -101 0 -170 85 -170 211 0 42 3 47 39 67 22 12 54 40 73 62 18
21 38 39 43 40 6 0 18 -26 29 -58z m-4190 -9 c14 -44 30 -70 68 -107 l50 -48
-17 -102 c-72 -442 -93 -888 -49 -1066 9 -36 20 -119 24 -185 8 -116 42 -326
73 -450 8 -33 26 -107 40 -165 14 -58 33 -130 41 -160 9 -30 28 -101 43 -158
l27 -103 -19 -36 c-24 -44 -58 -58 -98 -42 -45 19 -66 46 -112 144 -84 178
-153 424 -190 670 -53 361 -59 926 -14 1355 31 295 51 421 76 466 14 24 28 44
32 44 4 0 15 -26 25 -57z m443 16 c10 -17 34 -39 54 -49 l36 -19 -29 -113
c-35 -135 -53 -231 -73 -397 -9 -68 -17 -127 -20 -130 -6 -10 -44 -285 -60
-436 -7 -72 -24 -160 -36 -197 -19 -56 -28 -69 -60 -87 -61 -34 -101 -7 -144
99 -36 88 -20 447 41 884 39 287 35 269 68 273 68 9 126 60 162 142 15 34 31
61 35 61 4 0 16 -14 26 -31z m865 -28 c9 -17 33 -41 53 -52 19 -12 35 -25 35
-29 0 -4 -11 -51 -25 -105 -31 -120 -46 -251 -36 -333 6 -53 4 -68 -16 -110
-38 -80 -95 -130 -176 -153 -60 -17 -115 27 -147 116 -20 57 -17 341 4 460 26
143 23 135 54 135 34 0 124 29 133 43 4 5 11 7 16 4 5 -3 -3 -55 -20 -119 -51
-202 -72 -389 -45 -416 18 -18 36 -15 52 11 10 15 17 84 25 227 11 194 30 344
47 371 8 13 16 5 46 -50z m2423 -27 c36 -20 65 -38 65 -41 0 -9 -44 -43 -82
-63 -48 -26 -106 -34 -142 -21 l-28 11 38 43 c22 24 47 58 56 75 9 18 19 32
22 32 3 0 35 -16 71 -36z m-667 -60 c30 -42 76 -71 154 -97 21 -7 16 -27 -21
-77 -31 -42 -53 -60 -106 -82 -86 -36 -205 -9 -269 62 -49 54 -47 76 7 90 55
15 125 62 161 111 17 21 33 39 36 39 3 0 21 -21 38 -46z m899 -56 c1 -40 3
-85 4 -99 1 -17 -7 -36 -22 -52 -71 -76 -205 -55 -224 34 -6 27 -2 34 40 71
26 23 58 59 71 80 23 36 27 38 77 38 l52 0 2 -72z m-4108 -18 c-53 -358 -79
-575 -79 -667 0 -35 -4 -63 -10 -63 -6 0 -10 29 -10 68 0 37 -3 200 -6 363
l-6 296 34 21 c19 12 43 31 53 42 28 31 35 12 24 -60z m4936 50 c26 -11 55
-20 64 -20 11 0 33 -26 61 -72 23 -39 46 -76 51 -82 5 -6 29 -38 55 -71 26
-33 67 -81 91 -107 39 -43 42 -49 32 -75 -14 -38 -67 -92 -106 -109 -52 -23
-132 -18 -190 12 -80 39 -176 148 -230 260 -45 93 -49 124 -17 124 27 0 80 45
98 84 9 20 20 36 24 36 10 0 126 -231 148 -295 20 -59 41 -80 61 -64 21 18 16
42 -29 125 -58 110 -104 180 -151 231 -45 49 -35 54 38 23z m-2250 -40 c31
-16 67 -30 79 -30 38 0 48 -14 41 -56 -18 -97 -71 -187 -141 -235 -34 -23 -53
-29 -97 -29 -63 0 -131 26 -164 61 -30 33 -66 107 -60 122 2 7 28 19 56 26 28
7 51 16 51 19 0 4 13 13 30 20 16 7 53 40 82 72 29 32 56 59 59 59 4 1 33 -12
64 -29z m1025 -89 c30 -6 64 -9 75 -8 16 2 21 -5 23 -35 4 -47 -18 -89 -65
-125 -34 -26 -42 -28 -137 -27 -90 0 -107 3 -154 27 -29 15 -55 34 -58 42 -3
8 11 48 32 89 32 66 41 76 68 81 68 11 83 9 121 -12 22 -11 65 -26 95 -32z
m885 -16 c71 -11 85 -15 85 -26 0 -21 83 -186 128 -253 43 -65 45 -70 31 -95
-33 -58 -125 -68 -216 -24 -80 39 -119 97 -149 223 -19 80 -17 106 13 151 20
31 31 39 47 35 12 -2 39 -7 61 -11z m-414 -52 c8 -9 39 -27 69 -41 45 -20 65
-23 108 -18 59 7 62 3 33 -59 -28 -63 -103 -132 -150 -140 -54 -9 -117 23
-137 70 -17 41 -18 118 -3 148 29 56 56 70 80 40z m-1301 -8 c0 -21 72 -90
117 -114 21 -10 57 -24 81 -30 29 -8 42 -17 42 -29 0 -27 -114 -129 -159 -143
-53 -16 -122 9 -187 66 l-48 43 32 36 c18 20 48 70 68 111 33 71 54 94 54 60z
m3253 -48 c18 -18 64 -53 103 -79 65 -43 74 -54 107 -122 72 -149 152 -368
144 -390 -8 -20 -108 -39 -159 -31 -158 27 -316 169 -467 419 -22 37 -41 72
-41 77 0 5 16 9 36 9 45 0 100 24 142 64 20 19 36 26 41 20 6 -5 43 -81 85
-169 76 -163 99 -192 131 -165 8 7 15 21 15 32 0 52 -78 173 -175 271 -43 44
-46 51 -36 73 15 33 37 30 74 -9z m-2185 -74 c56 -5 58 -7 71 -42 24 -68 24
-98 1 -147 -38 -78 -99 -100 -177 -62 -35 17 -43 50 -44 171 0 120 8 134 57
105 18 -11 60 -22 92 -25z m-586 -8 c32 -41 112 -76 189 -82 38 -3 72 -9 74
-13 7 -11 -66 -120 -105 -157 -64 -63 -166 -89 -246 -63 -68 21 -144 62 -144
77 0 7 9 32 21 54 11 22 23 64 26 92 7 60 17 77 47 77 11 0 35 9 51 19 41 27
64 25 87 -4z m408 -104 c0 -104 18 -214 50 -304 16 -45 27 -84 24 -88 -9 -15
-109 -31 -161 -26 -68 7 -131 44 -172 99 -17 23 -31 45 -31 48 0 4 20 21 45
39 56 40 113 114 155 201 29 59 62 99 83 100 4 0 7 -31 7 -69z m2865 39 c18
-35 19 -40 3 -40 -23 1 -60 39 -54 55 9 24 34 17 51 -15z m-4266 -18 c11 -21
23 -56 26 -77 4 -22 12 -48 17 -59 15 -29 36 0 40 54 4 45 4 45 38 42 19 -1
38 -6 42 -10 8 -9 -14 -118 -31 -149 -24 -46 -119 -71 -168 -44 -24 12 -63 90
-63 125 0 13 6 29 13 35 12 9 23 39 43 109 6 22 23 12 43 -26z m2077 -20 c7
-26 18 -62 25 -80 12 -29 11 -36 -11 -78 -39 -71 -62 -87 -128 -91 -96 -7
-174 54 -188 146 -7 41 -6 44 12 36 73 -32 155 -5 224 72 25 28 47 49 50 46 3
-3 10 -26 16 -51z m2120 -55 c29 -43 69 -114 90 -157 52 -106 103 -123 104
-35 l1 30 24 -30 c66 -81 104 -112 165 -134 40 -14 83 -134 83 -231 -1 -157
-47 -220 -164 -220 -54 0 -87 19 -130 77 -35 45 -47 68 -97 188 -26 61 -114
263 -186 428 -80 182 -80 169 -5 165 l63 -3 52 -78z m-4609 27 c11 -18 18 -56
22 -122 5 -83 9 -97 24 -100 28 -5 63 33 77 84 12 43 13 44 56 44 37 0 44 -3
44 -20 0 -11 7 -37 16 -59 18 -46 13 -60 -43 -122 -53 -59 -95 -80 -157 -82
-61 -1 -82 11 -123 76 -17 28 -25 58 -30 115 -6 77 -5 77 30 123 19 26 40 56
46 68 15 27 17 26 38 -5z m3437 -63 c58 -79 157 -324 206 -506 48 -180 79
-283 100 -330 57 -131 90 -387 90 -695 0 -124 4 -219 10 -230 8 -16 6 -22 -16
-33 l-26 -14 1 -119 c3 -180 -52 -482 -121 -669 -82 -223 -210 -345 -364 -345
-33 0 -72 6 -87 13 -60 27 -91 173 -47 217 11 11 26 20 33 20 38 0 165 118
221 205 44 67 103 229 118 318 10 63 16 77 48 107 49 46 90 130 97 196 3 30 4
54 1 54 -3 0 -26 -28 -52 -61 -81 -104 -78 -56 8 134 14 32 26 62 26 67 0 15
-21 12 -42 -7 -10 -9 -21 -13 -25 -10 -3 4 -8 112 -11 241 -4 223 -4 236 16
263 11 15 24 46 30 68 10 38 26 250 17 230 -2 -5 -14 -43 -26 -83 -12 -43 -26
-71 -33 -69 -22 7 -24 79 -4 143 13 43 18 83 16 135 l-3 74 -18 -57 c-18 -58
-39 -74 -52 -40 -7 18 -8 181 -1 204 22 70 8 95 -18 33 -18 -43 -32 -45 -40
-4 -7 38 -18 61 -119 268 l-80 164 22 69 c23 71 53 110 77 101 8 -3 29 -26 48
-52z m-3863 -45 c20 -41 21 -55 17 -166 -3 -66 -2 -123 3 -125 31 -20 59 40
68 145 l6 65 31 -3 c18 -2 48 4 68 12 28 12 38 12 40 3 2 -7 10 -47 18 -89 13
-72 13 -79 -5 -114 -60 -117 -191 -178 -262 -122 -42 33 -64 97 -71 207 -7 96
-6 99 26 164 18 37 34 67 36 67 1 0 13 -20 25 -44z m3404 3 c11 -10 37 -25 58
-34 20 -8 37 -21 37 -28 0 -22 -62 -84 -105 -106 -70 -37 -158 -26 -213 26
-29 28 -33 36 -22 43 8 6 24 10 36 10 36 0 118 49 143 85 24 35 31 36 66 4z
m-2015 -67 l89 -4 7 -45 c14 -92 -12 -203 -47 -203 -4 0 -22 19 -39 43 -17 24
-45 51 -63 62 -45 26 -128 101 -154 141 -13 18 -23 44 -23 58 l0 24 70 -36
c62 -31 81 -36 160 -40z m-1852 9 c14 -38 22 -80 22 -122 0 -99 11 -163 31
-190 16 -22 19 -23 34 -8 13 13 14 23 6 60 -12 52 -14 130 -3 144 5 7 182 17
182 10 0 0 5 -37 10 -81 11 -85 13 -74 -45 -233 -70 -194 -173 -342 -225 -326
-38 12 -90 78 -107 135 -26 90 -5 493 32 600 9 25 18 51 20 58 8 24 20 11 43
-47z m3017 8 c4 -23 20 -55 36 -74 37 -41 36 -61 -1 -106 -20 -26 -43 -40 -74
-48 -82 -20 -87 -18 -139 67 -26 43 -47 87 -47 98 0 17 7 20 48 20 49 0 97 24
132 66 24 28 38 21 45 -23z m1496 15 c60 -30 226 -135 289 -182 185 -140 414
-377 526 -547 109 -164 128 -223 128 -405 1 -114 -2 -130 -24 -175 -15 -28
-43 -63 -68 -82 -40 -30 -49 -33 -117 -33 -107 0 -105 -2 -105 94 -1 233 -143
490 -390 703 -41 36 -87 75 -101 88 -27 25 -95 207 -84 225 13 21 167 -79 261
-170 118 -113 216 -248 308 -421 30 -57 60 -105 67 -108 16 -5 39 27 39 56 0
12 -19 57 -41 100 -104 196 -246 380 -365 473 -10 8 -37 29 -59 46 -47 37
-134 83 -190 99 -32 10 -41 18 -48 44 -4 18 -28 71 -53 117 -39 73 -47 104
-28 104 3 0 27 -12 55 -26z m-1009 -16 c30 -21 48 -40 48 -54 0 -11 14 -42 31
-69 39 -61 33 -78 -51 -134 -97 -64 -163 -56 -227 27 -40 53 -42 78 -7 86 34
9 105 83 128 135 11 22 21 41 24 41 3 0 27 -15 54 -32z m588 -10 c0 -41 -105
-208 -129 -208 -5 0 -14 14 -21 30 -11 27 -10 33 8 53 12 12 32 48 46 80 24
54 28 57 61 57 21 0 35 -5 35 -12z m2109 -106 c101 -244 133 -296 213 -354 10
-7 30 -47 45 -88 36 -99 38 -193 4 -265 -32 -69 -49 -85 -87 -85 -76 0 -183
160 -251 375 -14 44 -48 137 -75 207 -46 115 -49 129 -35 143 9 8 20 15 24 15
26 0 93 105 93 144 0 44 30 5 69 -92z m-4106 32 c76 -32 170 -41 233 -24 45
13 46 13 70 -16 13 -16 22 -33 21 -38 -2 -5 -29 -23 -61 -40 -103 -54 -232
-39 -313 37 -17 15 -23 32 -23 64 0 24 2 43 5 43 3 0 33 -12 68 -26z m2110
-121 c49 -106 137 -335 161 -423 72 -263 92 -997 36 -1325 -46 -270 -111 -428
-214 -523 -54 -50 -89 -68 -144 -75 -53 -6 -60 5 -37 59 19 43 23 56 58 199
56 226 113 682 123 990 6 156 4 208 -10 290 -41 233 -56 290 -146 543 -21 57
-25 62 -53 62 -28 0 -29 2 -23 33 3 17 14 38 24 45 9 8 24 19 32 25 17 13 90
111 90 120 0 12 42 77 49 77 5 0 29 -44 54 -97z m-1011 44 c4 -7 8 -18 8 -25
0 -14 43 -99 62 -123 7 -8 25 -24 41 -33 23 -15 27 -25 27 -62 0 -58 -34 -98
-81 -98 -45 1 -152 54 -211 105 -53 45 -57 55 -29 64 36 11 77 65 101 131 21
62 24 65 49 59 14 -4 29 -12 33 -18z m-1578 -7 c22 -8 26 -16 26 -47 0 -55
-43 -82 -161 -99 -146 -22 -246 -80 -293 -172 -22 -42 -20 -107 4 -177 23 -66
17 -80 -28 -70 -45 10 -66 47 -59 108 4 33 1 61 -8 84 -38 91 -1 183 73 183
42 0 100 31 170 88 66 56 178 110 229 111 12 1 33 -3 47 -9z m2284 -90 c3 -67
-19 -115 -67 -147 -44 -30 -106 -46 -146 -39 -37 7 -115 56 -115 71 0 7 12 22
26 36 15 13 37 46 50 74 l24 50 62 -3 c35 -1 79 2 98 7 59 15 65 12 68 -49z
m-2139 26 c56 -36 91 -82 91 -121 0 -18 6 -38 14 -44 19 -16 64 2 76 31 45
112 60 143 69 143 12 0 47 -23 73 -47 25 -25 23 -69 -7 -109 -13 -19 -34 -54
-46 -79 -27 -56 -30 -61 -53 -94 -10 -14 -21 -47 -24 -72 -4 -37 -10 -48 -33
-59 -40 -21 -75 -18 -99 7 -33 36 -26 62 23 84 64 29 56 48 -26 56 -37 3 -90
11 -118 17 -27 6 -92 11 -142 11 -66 0 -99 4 -114 15 -20 14 -21 13 -28 -33
-8 -55 -28 -97 -50 -105 -25 -10 -17 -26 19 -41 18 -8 36 -18 39 -22 9 -16
-12 -54 -30 -54 -29 1 -108 65 -126 103 -66 139 61 256 312 287 84 11 121 44
121 107 0 24 5 43 10 43 6 0 28 -11 49 -24z m-2202 -13 c14 -21 19 -56 23
-161 4 -113 8 -137 22 -146 9 -5 20 -7 24 -4 3 4 7 49 8 101 2 106 11 127 58
127 30 0 88 28 88 42 0 4 9 12 21 18 l21 12 -5 -194 c-4 -182 -23 -328 -57
-443 -5 -16 -16 -55 -24 -87 -13 -46 -22 -60 -52 -77 -69 -41 -120 -23 -164
60 -26 50 -32 72 -37 156 -6 106 10 350 33 503 7 52 14 101 14 108 0 19 8 15
27 -15z m7138 -200 c55 -224 75 -313 90 -403 44 -266 50 -305 75 -520 14 -119
36 -147 125 -159 l40 -6 -3 -65 c-5 -93 -31 -247 -53 -306 -25 -66 -69 -109
-103 -100 -29 7 -31 11 -51 151 -87 605 -175 1020 -277 1308 l-21 58 45 42
c25 23 55 62 68 86 27 55 31 50 65 -86z m-5023 -93 c13 -6 28 -22 35 -35 10
-23 9 -25 -12 -25 -13 0 -35 -5 -49 -11 -53 -24 -110 25 -76 66 14 17 69 20
102 5z m844 -42 c10 -11 49 -41 87 -65 37 -24 67 -48 67 -52 0 -15 -79 -41
-126 -41 -52 0 -95 19 -141 63 -39 37 -40 43 -10 51 12 3 36 19 52 36 34 36
46 37 71 8z m-441 -86 c0 -18 -4 -32 -10 -32 -11 -1 -26 56 -17 65 13 13 27
-4 27 -33z m1945 24 c0 -8 3 -21 6 -30 8 -20 -21 -32 -41 -16 -11 9 -11 17 -3
36 12 26 38 33 38 10z m-2301 -22 c39 -8 43 -41 7 -50 -46 -11 -97 26 -64 48
16 9 18 10 57 2z m3086 -95 c158 -181 275 -414 275 -547 -1 -92 -12 -135 -54
-197 -34 -52 -123 -123 -180 -144 -52 -21 -54 -13 -66 319 -12 355 -38 581
-74 639 -4 6 -4 16 0 23 7 11 16 3 99 -93z m-5391 -61 c3 -57 11 -123 17 -148
6 -25 12 -94 14 -155 6 -184 67 -447 201 -855 48 -148 64 -210 60 -233 -13
-64 -47 -73 -113 -29 -58 38 -98 86 -138 165 -46 92 -51 126 -30 194 18 56 18
58 -5 152 -12 53 -33 134 -46 181 -90 327 -179 789 -157 811 6 6 19 6 37 -1
37 -14 76 -12 106 5 44 25 47 20 54 -87z m4649 17 c60 -264 83 -512 68 -730
-6 -83 -15 -175 -20 -205 -6 -30 -17 -98 -27 -150 -58 -332 -269 -798 -458
-1016 -175 -202 -434 -248 -564 -100 -39 44 -55 101 -54 187 2 111 6 115 107
121 58 4 103 1 138 -8 92 -25 167 -14 239 33 55 37 51 54 -11 46 -62 -7 -88 1
-71 22 8 10 31 15 67 15 41 0 63 6 86 22 38 27 87 73 87 81 0 3 -18 5 -41 4
-29 -1 -44 3 -52 15 -16 25 38 96 99 130 45 25 104 81 104 100 0 4 -9 8 -19 8
-11 0 -23 4 -26 10 -10 17 45 78 80 90 32 11 125 101 125 121 0 12 4 13 -65
-21 -41 -20 -63 -26 -70 -19 -10 10 -3 17 62 69 38 30 95 122 84 133 -7 7 -19
3 -36 -13 -14 -13 -27 -21 -30 -18 -3 2 6 42 19 89 61 211 81 400 73 693 l-5
199 28 61 c15 34 33 74 40 90 14 38 23 26 43 -59z m-2756 19 c24 -9 43 -20 43
-24 0 -11 -25 -19 -46 -15 -11 2 -29 4 -41 4 -12 1 -29 9 -39 18 -15 16 -15
17 2 24 28 11 34 11 81 -7z m1850 -25 c64 -25 63 -16 23 -216 -67 -334 -181
-649 -319 -882 -108 -181 -280 -315 -486 -381 -90 -29 -283 -32 -390 -6 -204
49 -264 99 -252 211 7 68 59 149 91 142 11 -3 55 -15 96 -26 41 -11 102 -26
135 -32 38 -7 64 -17 73 -30 28 -41 157 -68 185 -40 8 8 8 11 -1 11 -7 0 -12
5 -12 10 0 6 29 10 68 10 76 0 156 22 187 52 26 25 7 38 -45 31 -35 -5 -80 9
-80 25 0 4 45 34 100 67 55 32 114 72 132 88 18 15 49 37 68 47 19 10 60 42
90 70 54 50 54 52 -10 34 -14 -4 -20 -1 -20 10 0 9 3 16 8 16 4 0 20 20 36 45
15 25 40 52 55 59 53 28 122 121 104 140 -3 3 -19 -2 -34 -11 -53 -32 -56 -7
-15 119 45 137 75 275 83 386 l6 84 35 -7 c20 -4 59 -16 89 -26z m-820 -49 c6
0 16 -7 23 -15 10 -12 8 -16 -14 -25 -33 -12 -83 -2 -91 19 -4 10 2 22 16 34
20 16 24 16 39 2 9 -8 21 -15 27 -15z m981 -11 c17 -6 34 -18 38 -27 13 -33
17 -245 4 -335 -41 -310 -190 -648 -421 -951 -24 -32 -53 -71 -64 -86 -11 -15
-57 -68 -103 -118 -45 -49 -91 -101 -101 -114 -47 -59 -183 -93 -298 -75 -66
11 -68 27 -5 63 26 15 76 49 111 76 57 43 70 48 115 48 28 0 69 5 91 12 l40
11 -40 9 c-100 21 -125 51 -52 62 61 9 134 35 147 52 11 12 7 14 -22 14 -32 0
-58 14 -58 32 0 4 7 8 15 8 22 0 120 47 135 65 10 12 10 15 -4 15 -34 0 -26
30 23 91 64 79 177 307 231 464 66 192 160 578 160 655 0 42 9 46 58 29z m161
-74 c16 -8 31 -22 35 -30 10 -26 7 -291 -4 -390 -35 -310 -153 -654 -332 -970
-36 -63 -180 -276 -202 -300 -71 -73 -413 -301 -648 -429 -56 -31 -221 -111
-329 -160 -204 -93 -525 -180 -724 -197 -199 -17 -339 -1 -515 57 -80 27 -114
44 -144 72 -60 57 -103 131 -117 201 -10 54 -10 66 6 101 10 22 33 54 53 71
29 27 36 29 43 16 37 -65 93 -118 164 -153 69 -34 84 -38 178 -42 56 -2 125 0
154 5 51 10 52 10 85 -25 57 -60 148 -87 226 -66 18 5 20 9 11 20 -6 8 -17 14
-23 14 -22 0 -109 85 -105 102 4 15 10 14 50 -12 57 -35 114 -53 157 -48 l33
3 -31 42 c-23 31 -28 44 -18 48 7 2 62 20 123 40 154 51 337 135 469 218 23
14 24 15 90 64 l49 36 48 -17 c111 -40 228 -28 353 35 50 26 74 31 136 33 111
2 195 50 233 133 15 33 6 36 -44 13 -49 -22 -94 -26 -105 -9 -10 17 12 32 88
59 46 16 77 33 87 49 l15 24 -37 -7 c-44 -8 -77 0 -77 18 0 7 26 43 58 79 289
327 461 777 462 1205 0 71 4 112 10 112 6 0 24 -7 39 -15z m403 -56 c9 -40 10
-408 2 -494 -22 -225 -102 -474 -216 -673 -45 -79 -104 -169 -118 -182 -3 -3
-17 -21 -30 -40 -67 -100 -213 -207 -324 -236 -53 -14 -116 -19 -116 -8 0 7
39 63 62 88 62 68 218 371 291 566 98 263 157 580 157 856 0 61 2 113 5 116 4
3 24 2 45 -3 44 -10 85 -2 165 29 28 11 54 19 60 18 5 -1 13 -18 17 -37z
m1750 -207 c4 -2 8 -7 8 -11 0 -5 43 -80 95 -167 123 -205 215 -392 259 -524
35 -107 66 -278 66 -367 0 -70 -26 -211 -50 -277 -25 -66 -95 -173 -141 -215
-52 -47 -133 -74 -196 -66 -59 7 -65 19 -34 63 27 37 59 137 71 219 14 101 12
259 -6 328 -9 33 -19 76 -23 95 -48 212 -144 477 -227 628 -18 34 -34 70 -34
80 1 9 14 32 30 51 l29 33 37 -73 c68 -134 96 -193 141 -304 84 -206 140 -387
145 -473 2 -36 7 -46 30 -58 38 -20 44 -18 58 15 10 25 9 41 -9 103 -11 40
-36 129 -55 198 -19 69 -51 171 -71 228 -38 111 -128 306 -151 330 -8 7 -21
26 -28 40 -8 15 -28 40 -44 55 -29 28 -30 30 -25 115 2 48 7 94 9 101 3 9 25
-16 57 -65 28 -43 55 -80 59 -82z m-449 -299 c39 -63 124 -251 168 -373 39
-109 88 -319 99 -426 6 -60 13 -122 15 -137 3 -36 17 -50 45 -45 45 6 47 28
16 180 -68 336 -153 591 -251 759 -19 33 -33 64 -31 68 3 4 25 8 50 9 39 2 47
-2 66 -27 67 -95 194 -418 234 -596 43 -195 58 -426 35 -537 -16 -76 -63 -162
-105 -194 l-36 -28 34 -17 c18 -9 53 -23 78 -30 25 -7 48 -15 52 -18 12 -11
-13 -179 -37 -252 -60 -175 -161 -263 -319 -276 -80 -7 -77 -21 -26 121 83
233 107 451 76 700 -9 70 -11 119 -5 140 17 58 13 68 -22 61 l-32 -7 5 111 c2
61 1 106 -4 99 -4 -7 -8 -21 -8 -30 0 -10 -6 -18 -13 -18 -10 0 -12 30 -9 135
3 98 1 135 -7 135 -7 0 -11 -6 -9 -12 3 -21 -12 -58 -25 -58 -7 0 -21 30 -31
68 -11 37 -46 130 -79 207 -76 181 -73 169 -43 205 14 17 34 51 45 75 11 25
27 45 35 45 9 0 26 -17 39 -37z m-180 -180 c3 -10 17 -49 32 -88 99 -261 168
-499 227 -790 27 -138 32 -180 31 -300 -1 -167 -15 -266 -53 -380 -35 -104
-69 -168 -115 -217 l-35 -36 30 -7 c16 -4 32 -10 34 -14 9 -13 -66 -146 -105
-187 -43 -44 -112 -74 -170 -74 -73 0 -191 48 -261 106 -23 19 -26 25 -15 36
94 94 201 286 237 427 62 239 64 565 6 856 -8 39 -16 81 -19 95 -2 14 -19 76
-36 139 -32 114 -32 114 -17 195 8 45 17 107 21 139 4 31 10 57 14 57 18 0 30
-31 74 -185 119 -417 167 -689 167 -941 0 -122 3 -153 14 -157 28 -11 40 23
44 135 9 215 -28 540 -88 772 -30 117 -100 315 -125 353 -8 12 -15 25 -15 27
0 7 92 55 106 56 7 0 14 -8 17 -17z m-255 -574 c22 -76 50 -239 63 -363 21
-215 -9 -465 -78 -646 -43 -113 -56 -145 -70 -161 -7 -8 -13 -19 -13 -23 0 -6
-49 -86 -60 -96 -3 -3 -21 -25 -40 -50 -19 -25 -38 -46 -42 -48 -17 -7 -6 -21
47 -62 30 -23 55 -47 55 -53 0 -19 -133 -142 -175 -161 -100 -48 -185 -27
-277 66 -60 60 -74 98 -38 98 42 0 129 49 182 104 63 63 112 151 157 279 46
130 68 259 86 497 10 136 21 227 31 247 28 62 76 199 107 310 18 62 36 111 42
110 5 -2 15 -23 23 -48z m-769 -366 c-17 -92 15 -193 83 -264 l40 -41 -27 -56
c-46 -97 -132 -238 -288 -472 -82 -124 -153 -227 -157 -230 -4 -3 -20 -23 -36
-45 -42 -59 -126 -153 -254 -288 -103 -109 -233 -208 -351 -267 -145 -74 -399
-126 -566 -118 -78 4 -98 9 -135 33 -50 32 -90 90 -119 172 -41 120 -19 237
56 283 57 35 81 22 131 -75 74 -140 148 -195 263 -195 36 0 73 5 81 10 12 7 8
10 -15 10 -67 1 -156 62 -194 134 -22 40 -6 42 35 6 21 -18 65 -45 98 -61 54
-26 71 -29 151 -28 64 1 80 3 55 8 -19 4 -58 19 -87 34 -82 42 -81 62 2 32 50
-18 162 -19 194 -1 24 13 24 13 -12 20 -41 8 -144 53 -152 67 -4 5 2 12 12 15
10 3 45 18 78 33 44 20 77 28 125 30 98 2 167 12 186 26 15 11 13 13 -20 19
-46 9 -43 30 5 34 70 5 99 13 99 27 0 8 -7 15 -15 15 -26 0 -17 19 18 36 50
26 149 95 144 101 -3 2 -28 -2 -56 -11 -63 -18 -66 -7 -13 49 38 41 96 125
125 181 12 24 26 33 54 39 63 12 120 47 207 128 17 16 24 27 16 24 -8 -2 -25
-7 -37 -11 -17 -6 -23 -3 -23 8 0 9 6 16 13 16 6 0 33 20 60 45 46 44 61 73
32 61 -22 -8 -31 22 -12 37 20 16 67 87 67 102 0 8 -22 1 -60 -17 -58 -27 -80
-29 -80 -6 0 9 53 83 70 98 11 9 143 207 154 230 7 15 23 42 39 68 16 25 24 2
16 -45z"/>
<path d="M6244 11397 c-7 -20 39 -77 63 -77 20 0 15 11 -22 55 -29 34 -35 37
-41 22z"/>
<path d="M6465 11363 c3 -16 13 -38 21 -51 12 -18 18 -21 29 -12 11 10 9 18
-13 50 -32 46 -47 51 -37 13z"/>
<path d="M6730 11348 c0 -19 37 -58 55 -58 21 0 19 29 -2 37 -10 3 -26 13 -35
21 -16 13 -18 13 -18 0z"/>
<path d="M6640 11279 c0 -12 25 -22 41 -17 6 2 0 9 -15 16 -16 7 -26 8 -26 1z"/>
<path d="M6286 11233 c-23 -60 13 -123 48 -84 22 25 20 35 -13 69 -23 23 -31
26 -35 15z"/>
<path d="M6765 11214 c-16 -8 -48 -18 -72 -21 -46 -6 -52 -13 -28 -33 20 -16
19 -70 -1 -98 -8 -12 -12 -22 -7 -22 17 1 65 49 96 96 26 40 38 50 65 52 34 3
44 25 16 36 -24 9 -36 7 -69 -10z"/>
<path d="M6511 11203 c-36 -5 -55 -19 -89 -70 -29 -41 -28 -53 3 -53 15 0 40
-7 56 -16 33 -16 51 -12 31 8 -23 23 -14 74 18 101 29 25 38 39 23 35 -5 0
-23 -3 -42 -5z"/>
<path d="M6567 11143 c-13 -13 -7 -61 9 -67 22 -9 54 11 54 34 0 27 -46 51
-63 33z"/>
<path d="M7087 11123 c-16 -56 -16 -71 -3 -83 11 -9 20 -9 36 0 18 10 21 18
16 42 -10 52 -40 76 -49 41z"/>
<path d="M6117 11106 c-15 -38 34 -116 60 -95 18 16 17 18 -21 67 -23 29 -35
38 -39 28z"/>
<path d="M5940 10976 c0 -35 6 -50 29 -75 26 -27 35 -31 83 -31 41 0 59 5 71
18 23 25 21 32 -5 32 -51 0 -104 24 -140 62 l-38 39 0 -45z"/>
<path d="M6262 10952 c5 -56 29 -92 59 -92 37 0 54 74 19 85 -11 4 -34 18 -52
33 l-31 26 5 -52z"/>
<path d="M6460 10968 c0 -26 35 -62 53 -55 22 8 22 26 0 34 -10 3 -26 13 -35
21 -16 13 -18 13 -18 0z"/>
<path d="M5760 10859 c0 -74 92 -139 198 -139 62 0 63 0 77 -34 8 -19 23 -37
34 -41 27 -8 68 10 76 34 10 33 -3 43 -49 36 -32 -5 -45 -3 -55 9 -8 10 -30
16 -55 16 -82 1 -166 46 -205 111 -20 33 -21 33 -21 8z"/>
<path d="M6200 10840 c0 -55 34 -115 76 -135 43 -20 61 -19 74 4 15 29 4 45
-43 61 -31 11 -50 27 -74 64 l-33 48 0 -42z"/>
<path d="M6577 10823 c-14 -13 -6 -23 46 -63 67 -50 115 -69 128 -49 14 23 11
29 -23 44 -18 8 -53 28 -78 45 -46 30 -61 35 -73 23z"/>
<path d="M5850 10647 c0 -96 36 -156 110 -182 59 -21 117 -20 129 3 14 26 -10
52 -48 52 -62 0 -133 59 -170 140 l-21 45 0 -58z"/>
<path d="M6290 10591 c0 -36 30 -74 71 -91 28 -12 33 -12 45 5 20 27 15 35
-54 77 l-62 38 0 -29z"/>
<path d="M6130 10589 c0 -40 33 -120 57 -138 42 -33 103 -23 103 17 0 7 -25
24 -55 38 -36 17 -64 38 -80 62 -14 20 -25 30 -25 21z"/>
<path d="M9356 8862 c-6 -11 80 -150 130 -209 39 -48 76 -57 94 -23 16 30 -4
57 -52 72 -51 15 -112 73 -134 127 -16 40 -27 50 -38 33z"/>
<path d="M8537 9483 c-14 -14 -6 -43 16 -54 55 -30 315 -303 394 -415 13 -17
32 -34 44 -37 27 -7 59 25 52 52 -12 47 -178 218 -388 400 -64 55 -101 72
-118 54z"/>
<path d="M2723 9047 c-39 -58 -92 -171 -119 -255 -23 -72 -25 -87 -14 -108 9
-17 22 -24 41 -24 32 0 32 -2 48 130 6 47 15 99 21 115 30 97 50 168 48 171
-2 1 -13 -12 -25 -29z"/>
<path d="M2641 8053 c-26 -79 -77 -328 -87 -425 -12 -129 15 -224 50 -175 7 9
17 97 25 204 6 103 19 248 27 322 8 73 13 135 11 137 -2 2 -13 -27 -26 -63z"/>
<path d="M2278 4974 c-19 -6 -21 -17 -9 -49 6 -16 16 -19 54 -16 58 3 100 -18
131 -68 31 -49 40 -97 31 -166 -5 -42 -10 -55 -23 -55 -9 0 -51 -12 -92 -25
-41 -14 -80 -25 -88 -25 -8 0 6 23 31 50 59 65 108 141 105 159 -4 18 -19 25
-109 51 -99 27 -209 29 -243 3 -51 -38 -60 -95 -20 -142 57 -68 171 -16 157
72 -5 36 -4 38 13 29 10 -6 30 -13 44 -16 14 -3 34 -12 45 -19 19 -14 19 -16
-10 -58 -35 -54 -168 -189 -185 -189 -8 0 -10 -9 -5 -27 12 -52 23 -54 115
-22 47 17 90 31 95 33 6 1 36 11 69 20 34 11 73 16 93 13 30 -5 36 -3 51 23 9
17 19 30 23 30 3 0 26 -13 52 -30 26 -16 49 -30 51 -30 5 0 27 62 24 65 -2 1
-28 16 -58 33 l-55 30 -7 73 c-3 40 -11 75 -17 77 -5 2 -8 9 -5 15 7 20 -52
104 -93 131 -38 25 -127 41 -165 30z m-126 -203 c7 -30 -4 -51 -29 -57 -33 -9
-58 16 -49 49 9 38 71 44 78 8z"/>
<path d="M10021 4925 c-13 -25 -27 -45 -31 -45 -15 0 -44 -97 -43 -146 0 -60
20 -105 73 -165 33 -37 42 -42 57 -33 10 6 21 30 25 54 8 46 59 154 87 183 16
16 20 16 47 2 16 -8 34 -15 40 -15 7 0 9 -17 7 -47 -4 -41 -1 -52 21 -75 19
-21 34 -28 63 -28 45 1 64 13 87 59 38 73 -1 122 -123 156 -39 12 -69 27 -81
42 -12 16 -27 23 -41 21 -28 -4 -88 -86 -134 -182 l-33 -69 -17 33 c-25 48
-14 110 35 190 46 75 48 85 21 100 -30 16 -34 13 -60 -35z m373 -188 c12 -9
17 -23 14 -42 -2 -24 -8 -31 -29 -33 -51 -6 -71 43 -31 76 20 15 24 15 46 -1z"/>
<path d="M2694 4900 c-33 -13 -64 -59 -64 -96 0 -39 38 -89 76 -98 37 -10 87
12 112 48 26 38 27 57 7 96 -25 48 -82 70 -131 50z m62 -48 c18 -12 32 -44 27
-62 -3 -10 -16 -23 -29 -31 -31 -16 -55 -4 -68 34 -15 43 34 84 70 59z"/>
<path d="M9948 4506 c-8 -7 -33 -23 -55 -34 -76 -39 -153 -160 -153 -241 0
-68 45 -138 110 -171 37 -19 121 -44 182 -54 23 -4 46 -17 61 -35 22 -26 27
-28 48 -17 13 6 25 18 27 27 3 16 -46 78 -110 139 l-36 35 24 30 c13 17 24 42
24 57 0 38 -38 78 -82 85 -32 5 -41 1 -68 -25 -48 -48 -42 -79 32 -158 l63
-67 -35 8 c-53 11 -122 43 -145 68 -16 17 -20 35 -20 87 0 56 4 71 30 110 35
52 96 82 124 62 16 -13 269 -137 307 -152 18 -7 24 -3 37 26 l17 34 -72 35
c-40 20 -78 33 -85 31 -7 -3 -12 -1 -10 5 1 5 -25 22 -58 36 -58 24 -107 56
-106 67 2 21 -1 26 -18 26 -11 0 -26 -6 -33 -14z m54 -228 c36 -28 21 -78 -23
-78 -23 0 -32 6 -40 27 -9 24 -7 30 11 45 26 21 31 22 52 6z"/>
<path d="M2493 4490 c-15 -6 -20 -15 -16 -29 8 -31 24 -40 85 -43 31 -2 54 -6
52 -9 -2 -4 3 -12 11 -19 49 -41 54 -169 6 -177 -13 -2 -65 -23 -115 -47 -50
-23 -119 -55 -153 -71 -65 -29 -70 -36 -53 -80 11 -29 -12 -36 208 64 85 39
141 59 155 56 33 -8 48 8 53 51 2 22 6 56 10 76 11 69 -38 168 -106 211 -31
20 -108 29 -137 17z"/>
<path d="M2740 4119 c-49 -18 -78 -102 -45 -129 21 -18 10 -29 -95 -95 -58
-37 -98 -55 -119 -55 -25 0 -34 -6 -41 -26 -14 -35 7 -50 76 -57 58 -6 144
-40 144 -56 0 -6 -6 -11 -13 -11 -18 0 -53 -39 -67 -74 -22 -60 27 -134 97
-143 48 -6 103 28 116 72 6 23 25 40 75 70 37 21 94 57 127 80 33 22 61 40 62
41 2 0 -3 12 -10 27 -15 33 -35 42 -56 24 -37 -31 -183 -117 -199 -117 -10 0
-25 13 -35 29 -18 30 -106 101 -126 101 -28 0 -5 22 67 63 106 62 161 103 174
132 17 37 -16 103 -59 121 -37 16 -39 16 -73 3z m61 -49 c23 -13 25 -52 4 -70
-20 -17 -62 -5 -70 20 -8 24 11 60 31 60 8 0 24 -5 35 -10z m-77 -445 c21 -16
24 -58 6 -80 -19 -23 -77 -19 -90 6 -32 58 31 114 84 74z"/>
<path d="M3124 4123 c-66 -13 -87 -98 -46 -184 53 -109 160 -179 275 -179 36
0 68 3 70 8 3 4 2 21 0 39 -4 27 -8 30 -25 24 -33 -12 -134 5 -173 29 -58 36
-82 90 -40 90 21 0 55 50 55 81 0 17 -11 40 -27 58 -30 31 -54 41 -89 34z m50
-59 c33 -32 10 -79 -36 -72 -17 2 -24 11 -26 31 -6 49 30 73 62 41z"/>
<path d="M9620 4028 c-12 -16 -18 -33 -14 -37 5 -5 55 -38 112 -75 56 -36 102
-71 102 -77 0 -5 -9 -28 -21 -51 -12 -23 -24 -68 -26 -100 -3 -32 -10 -58 -15
-58 -5 0 -56 32 -114 70 -59 39 -118 73 -133 76 -40 8 -75 -10 -96 -49 -28
-53 -13 -106 38 -130 45 -23 77 -17 111 19 l24 27 100 -67 c69 -46 102 -75
106 -92 7 -28 46 -33 66 -8 11 12 10 24 -3 68 -16 50 -24 166 -11 166 3 0 17
-9 31 -20 74 -58 195 19 176 112 -10 53 -54 89 -111 92 -39 1 -63 12 -137 60
-49 32 -106 69 -126 82 l-36 23 -23 -31z m361 -209 c15 -15 19 -28 14 -47 -6
-26 -31 -51 -51 -52 -19 0 -53 34 -55 55 -3 37 1 46 24 55 34 14 45 12 68 -11z
m-456 -115 c26 -26 3 -74 -35 -74 -37 0 -56 44 -31 73 17 21 45 22 66 1z"/>
<path d="M3007 3598 l-38 -10 7 -54 c6 -48 4 -55 -13 -61 -20 -8 -95 -69 -165
-133 l-38 -35 26 -29 25 -29 32 30 c45 40 127 106 160 128 19 12 38 16 61 12
29 -5 35 -2 40 16 9 34 8 36 -26 45 -26 6 -34 14 -36 35 -3 25 -1 27 33 27
101 0 185 -93 185 -207 0 -18 -5 -33 -11 -33 -13 0 -65 -40 -164 -125 -38 -33
-83 -70 -99 -83 l-29 -22 27 -29 28 -29 131 109 c76 64 139 109 152 109 11 0
26 5 33 12 13 13 16 51 5 62 -5 4 -9 27 -9 50 -4 151 -175 282 -317 244z"/>
<path d="M9380 3551 c0 -4 -16 -11 -34 -14 -93 -15 -194 -108 -222 -203 -21
-74 0 -159 53 -206 19 -17 20 -17 41 11 21 28 21 29 2 46 -53 48 -49 144 8
207 30 33 119 88 142 88 11 0 153 -140 148 -146 -3 -2 -25 0 -49 5 -142 30
-217 22 -206 -22 55 -229 102 -307 186 -307 47 0 76 21 91 65 12 38 4 64 -33
99 -25 25 -81 25 -108 0 -10 -9 -22 -14 -25 -11 -11 11 -34 109 -28 119 10 16
230 -23 303 -53 21 -9 28 -6 48 17 13 15 23 28 23 29 0 1 -57 51 -126 110 -81
69 -131 120 -140 142 -12 27 -20 33 -44 33 -17 0 -30 -4 -30 -9z m109 -430 c5
-9 5 -25 1 -37 -19 -48 -80 -35 -80 17 0 46 58 61 79 20z"/>
<path d="M3485 3134 c-39 -33 -41 -90 -6 -128 14 -14 21 -29 17 -33 -4 -5 -37
-41 -74 -80 -36 -40 -69 -73 -72 -73 -4 0 -10 66 -14 146 -4 80 -10 152 -13
160 -5 13 -48 10 -65 -5 -4 -3 -3 -62 3 -131 6 -69 7 -153 4 -187 l-6 -62 38
-10 c21 -6 43 -11 49 -11 15 0 274 273 292 307 18 33 8 68 -28 104 -37 38 -84
39 -125 3z m93 -36 c22 -22 14 -58 -14 -68 -14 -6 -30 -8 -35 -5 -35 22 -25
85 14 85 13 0 28 -5 35 -12z"/>
<path d="M8980 3150 c-65 -10 -92 -23 -152 -73 -76 -64 -118 -186 -89 -260 10
-27 14 -28 62 -24 40 3 53 0 63 -14 6 -10 47 -58 90 -108 l79 -90 29 20 c15
11 28 24 28 28 0 5 -37 50 -82 101 -77 87 -82 95 -82 139 -1 34 -6 48 -19 53
-27 12 -47 -2 -47 -32 0 -22 -5 -29 -25 -32 -32 -7 -35 -3 -35 52 0 86 91 170
183 170 26 0 47 -4 47 -10 0 -7 89 -113 236 -279 5 -6 54 40 54 50 0 4 -6 14
-13 21 -104 109 -203 234 -207 261 -6 37 -25 41 -120 27z"/>
<path d="M3696 2960 c-29 -9 -76 -47 -76 -62 0 -4 11 -15 24 -23 22 -15 26
-14 59 5 31 19 41 20 78 10 53 -15 96 -56 104 -104 7 -33 4 -40 -34 -78 -22
-24 -41 -45 -41 -49 0 -3 -36 -52 -80 -109 l-80 -104 26 -23 c34 -29 32 -31
144 120 54 73 99 123 123 137 38 22 46 44 28 78 -5 9 -14 36 -20 58 -26 97
-162 174 -255 144z"/>
<path d="M8579 2931 c-6 -14 -15 -47 -21 -73 -10 -41 -15 -47 -44 -52 -39 -8
-120 -50 -153 -79 -48 -45 -74 -98 -74 -154 0 -69 29 -136 52 -123 41 24 41
24 26 72 -25 86 5 147 97 194 51 26 148 34 148 12 0 -13 79 -139 93 -149 5 -4
5 -9 1 -12 -5 -3 -35 8 -67 24 -69 34 -152 60 -171 53 -17 -7 -28 -159 -16
-222 19 -100 43 -138 97 -148 74 -14 135 48 112 114 -16 45 -53 66 -105 58
l-44 -6 0 60 c0 54 2 60 20 60 42 0 208 -82 265 -130 19 -16 22 -16 52 5 l31
22 -94 139 c-67 100 -94 148 -94 170 0 36 -16 54 -47 54 -27 0 -28 12 -8 70
17 49 15 56 -21 63 -21 4 -27 0 -35 -22z m26 -571 c0 -33 -2 -35 -35 -35 -29
0 -36 4 -38 23 -6 40 5 54 40 50 30 -3 33 -6 33 -38z"/>
<path d="M7685 2736 c-2 -6 -9 -33 -15 -61 -15 -61 -43 -105 -84 -133 -51 -34
-66 -37 -66 -13 0 49 -60 101 -107 93 -29 -4 -83 -58 -83 -82 0 -65 64 -116
134 -107 150 21 261 123 281 258 7 46 7 46 -25 51 -18 3 -33 0 -35 -6z m-225
-181 c15 -18 6 -61 -14 -68 -25 -10 -56 5 -62 29 -8 30 11 54 41 54 12 0 28
-7 35 -15z"/>
<path d="M4029 2711 c-40 -40 -39 -84 2 -127 l31 -32 -26 -48 c-58 -110 -85
-150 -110 -162 -17 -9 -26 -21 -26 -36 0 -42 19 -45 111 -18 53 15 96 22 112
18 l27 -6 -20 -35 c-11 -20 -20 -46 -20 -59 0 -37 41 -89 83 -105 34 -13 42
-12 73 2 49 24 76 72 69 121 -4 26 -1 44 8 55 8 9 42 65 77 126 l62 109 -28
23 c-16 13 -31 23 -34 23 -3 0 -32 -47 -64 -105 -33 -58 -65 -110 -73 -116 -9
-9 -23 -7 -50 7 -21 10 -68 20 -105 22 -48 3 -68 8 -68 18 0 7 4 15 9 18 5 4
25 34 44 69 19 34 46 83 61 109 30 55 32 70 9 108 -33 57 -107 67 -154 21z
m96 -31 c37 -40 -8 -97 -54 -68 -27 17 -27 53 1 72 29 20 31 20 53 -4z m149
-453 c12 -34 0 -58 -37 -71 -33 -12 -67 15 -67 54 0 36 19 51 60 48 28 -2 37
-9 44 -31z"/>
<path d="M8007 2529 c-39 -14 -74 -37 -106 -68 -99 -98 -90 -203 30 -332 51
-55 69 -90 62 -117 -4 -17 1 -24 22 -32 39 -15 50 -1 80 98 14 48 35 109 45
136 11 27 20 67 20 90 0 79 -81 124 -146 81 -57 -37 -51 -123 12 -152 37 -18
41 -35 20 -92 l-12 -34 -37 39 c-20 21 -51 66 -69 99 -26 51 -30 67 -24 100
14 71 105 135 192 135 48 0 74 -11 74 -30 0 -10 20 -58 43 -106 24 -49 59
-121 78 -160 l34 -71 33 15 c17 9 32 20 32 25 0 5 -31 74 -70 153 -44 92 -70
157 -70 179 0 39 -10 48 -59 50 -20 1 -56 5 -81 8 -33 5 -61 1 -103 -14z m93
-189 c28 -28 13 -64 -29 -68 -25 -3 -33 2 -43 22 -9 22 -8 29 7 46 23 25 40
25 65 0z"/>
<path d="M5255 2508 c-22 -26 -26 -39 -21 -66 7 -44 29 -68 91 -100 35 -17 72
-27 121 -30 62 -4 79 -1 133 23 54 24 131 92 131 114 0 4 -11 13 -25 22 -25
14 -27 13 -73 -31 -54 -52 -119 -75 -178 -64 -28 5 -34 10 -28 23 19 43 16 78
-11 109 -22 27 -34 32 -70 32 -36 0 -48 -5 -70 -32z m103 -30 c17 -17 15 -35
-8 -58 -24 -24 -54 -14 -65 20 -13 40 43 68 73 38z"/>
<path d="M6460 2432 c0 -5 -13 -29 -30 -53 -31 -48 -92 -86 -154 -96 l-35 -5
2 45 c4 101 -107 139 -170 58 -29 -38 -5 -109 46 -135 31 -16 113 -30 161 -27
86 5 202 90 237 173 11 27 11 29 -13 38 -31 12 -44 13 -44 2z m-276 -68 c27
-27 9 -74 -28 -74 -28 0 -46 18 -46 45 0 42 44 60 74 29z"/>
<path d="M4606 2416 c-81 -30 -128 -108 -151 -249 -10 -62 -18 -84 -40 -107
-27 -28 -27 -30 -11 -55 9 -14 22 -25 28 -25 7 0 48 36 91 80 l78 79 32 -19
c43 -27 69 -25 106 6 68 57 12 171 -74 150 -23 -6 -115 -92 -115 -108 0 -5 -6
-8 -14 -8 -12 0 -12 8 -2 53 16 68 39 110 70 131 35 23 117 21 166 -4 65 -33
109 -107 81 -135 -10 -10 -141 -315 -141 -327 0 -7 70 -32 74 -26 1 1 22 50
46 108 72 178 87 208 109 219 24 13 27 43 6 61 -8 6 -26 31 -40 56 -56 96
-204 155 -299 120z m114 -201 c19 -23 -3 -65 -34 -65 -32 0 -50 24 -42 55 5
19 13 25 35 25 16 0 34 -7 41 -15z"/>
<path d="M7517 2326 c-106 -38 -155 -118 -136 -222 5 -26 11 -49 12 -51 2 -2
17 2 34 7 29 11 30 12 29 76 -1 62 1 67 31 94 18 16 48 32 69 36 43 8 115 -11
108 -29 -2 -7 9 -49 26 -95 16 -45 30 -87 30 -92 0 -5 -14 -17 -31 -25 -34
-18 -63 -75 -54 -105 9 -29 63 -70 92 -70 35 0 87 34 102 66 10 23 6 44 -35
166 -33 100 -45 149 -41 173 5 28 1 36 -19 50 -14 9 -31 14 -37 12 -7 -2 -26
2 -44 10 -40 16 -87 16 -136 -1z m241 -348 c27 -27 7 -78 -29 -78 -21 0 -49
26 -49 45 0 35 53 58 78 33z"/>
<path d="M5075 2235 c-45 -24 -81 -62 -100 -106 -10 -21 -16 -41 -14 -43 2 -2
18 -6 35 -9 28 -5 32 -3 48 33 44 101 185 108 282 15 45 -43 46 -43 29 -69
-10 -14 -15 -33 -11 -41 3 -9 2 -14 -2 -11 -5 3 -14 -22 -21 -55 -6 -32 -15
-59 -20 -59 -4 0 -14 26 -21 58 -14 65 -63 168 -82 174 -22 8 -161 -117 -196
-175 -40 -67 -42 -113 -6 -156 35 -42 89 -43 126 -3 34 37 39 54 26 96 -7 23
-20 39 -39 47 -16 6 -29 15 -29 19 0 11 83 80 96 80 20 0 76 -189 86 -294 2
-24 9 -31 37 -38 18 -5 35 -7 37 -5 2 2 22 75 45 163 31 118 48 166 66 185 21
23 23 30 14 48 -7 12 -16 21 -21 21 -5 0 -26 18 -46 40 -63 68 -117 93 -209
97 -60 3 -87 0 -110 -12z m23 -350 c2 -1 4 -15 5 -30 2 -33 -21 -50 -56 -41
-21 5 -27 12 -27 34 0 37 19 54 50 47 14 -4 26 -8 28 -10z"/>
<path d="M7200 2230 c0 -5 -8 -6 -17 -4 -38 9 -99 -75 -87 -120 3 -14 14 -32
25 -42 10 -9 19 -21 19 -26 0 -13 -84 -188 -90 -188 -5 0 -32 114 -55 227 -17
83 -105 112 -164 52 -62 -61 -21 -152 69 -152 29 0 29 -1 56 -114 23 -99 24
-118 13 -145 -12 -28 -11 -32 10 -49 26 -21 31 -22 47 -11 17 12 84 163 77
175 -3 5 -2 7 4 4 5 -3 29 37 54 89 35 75 48 94 63 92 22 -3 26 -14 58 -167
13 -65 29 -116 36 -118 7 -3 26 -2 41 3 l28 9 -14 65 c-8 36 -20 100 -27 144
-8 55 -17 82 -30 92 -17 12 -17 17 -6 43 16 39 6 91 -22 115 -23 20 -88 39
-88 26z m48 -62 c7 -7 12 -24 12 -38 0 -33 -17 -50 -51 -50 -31 0 -59 23 -59
47 0 42 69 70 98 41z m-320 -101 c3 -32 0 -37 -24 -43 -45 -12 -71 41 -38 77
25 28 58 10 62 -34z"/>
<path d="M5670 2112 c-40 -41 -41 -83 -1 -123 17 -17 40 -29 55 -29 14 0 26
-2 26 -3 0 -2 -7 -48 -15 -103 -8 -54 -15 -105 -15 -112 0 -8 -4 -12 -10 -10
-9 3 -27 25 -148 185 l-47 62 -27 -26 -26 -25 99 -122 c54 -66 99 -128 99
-137 0 -8 6 -23 13 -33 12 -17 18 -17 51 -6 20 6 43 22 50 33 8 12 24 94 35
182 12 88 24 176 27 195 8 52 -27 90 -88 97 -42 5 -50 3 -78 -25z m98 -34 c32
-32 -4 -81 -50 -70 -23 5 -34 48 -18 67 15 18 51 20 68 3z"/>
<path d="M6615 2123 c-65 -16 -88 -101 -40 -148 13 -14 34 -26 47 -26 13 -1
30 -2 38 -3 11 -1 17 -22 23 -91 13 -153 17 -150 -93 -59 -98 82 -140 114
-151 114 -10 0 -29 -49 -23 -63 2 -7 17 -20 32 -29 44 -26 197 -149 201 -162
6 -19 34 -46 47 -46 7 0 27 12 45 27 l32 27 -6 86 c-16 218 -28 322 -39 340
-7 11 -26 24 -42 30 -30 10 -38 11 -71 3z m49 -49 c21 -8 21 -57 1 -74 -23
-19 -65 2 -65 33 0 38 27 55 64 41z"/>
<path d="M6015 2091 c-53 -24 -99 -77 -120 -140 -20 -60 -17 -73 14 -78 31 -4
51 13 51 44 0 31 21 72 55 103 21 20 39 25 95 28 61 4 75 1 115 -22 49 -29 67
-54 56 -76 -4 -8 -16 -64 -26 -123 -10 -59 -21 -104 -25 -100 -4 4 -12 44 -18
87 -12 92 -33 127 -85 140 -28 7 -41 6 -62 -8 -83 -54 -38 -185 59 -169 l31 5
12 -65 c7 -36 10 -72 7 -80 -2 -7 4 -24 14 -37 17 -21 21 -22 49 -10 17 8 36
23 43 34 8 12 26 88 41 170 18 95 35 156 46 168 21 23 10 46 -33 67 -16 8 -35
21 -43 29 -51 51 -198 69 -276 33z m129 -197 c20 -19 20 -24 0 -52 -17 -24
-43 -29 -62 -10 -13 13 -16 60 -5 71 12 13 51 7 67 -9z"/>
</g>
</svg>
